<svg xmlns="http://www.w3.org/2000/svg" xmlns:xlink="http://www.w3.org/1999/xlink" width="260" height="260" viewBox="0 0 260 260">
  <defs>
    <style>
      .cls-1 {
        fill-rule: evenodd;
			fill: #2d2d2d;
      }
    </style>
  </defs>
  <path id="footer_symbol.svg" class="cls-1" d="M319.979,3636.24c0.294,0,.6,0,0.894.01a126.757,126.757,0,0,1-.858,253.51c-0.294,0-.6,0-0.893-0.01a126.757,126.757,0,0,1,.857-253.51m0-3.24a130,130,0,0,0-.879,260h0.915a130,130,0,0,0,.88-260h-0.916Zm-66.938,45.68-3.4,3.07-0.2-.22,0.988-.89-9.446-10.4,4.744,11.06-9.047-3.53,2.051,2.25a42.852,42.852,0,0,0,5.965,5.81l0.974-.88,0.2,0.22-2.881,2.61-0.2-.22,0.987-.9a57.894,57.894,0,0,0-5.312-6.46l-2.481-2.73-2.293-.87-0.863.78-0.2-.22,2.368-2.15,9.271,3.64-3.735-8.66,2.532-2.29,0.2,0.22-0.988.9,9.572,10.53,0.989-.89Zm4.089-2.87-3.653,2.76-0.181-.24,1.062-.8-8.606-11.33-1.063.8-0.183-.24,3.654-2.77,0.182,0.24-1.064.81,8.608,11.33,1.062-.8Zm1.308-18.31-0.661.43a15.054,15.054,0,0,0,1.205,2.65q0.357,0.69,1.654,2.91c0.863,1.48,1.416,2.4,1.654,2.77l3.145,4.85-12.412-6.59,0.354,0.53q3.567,5.5,4.2,6.36a15.635,15.635,0,0,0,1.96,2.33l1.1-.71,0.165,0.25-3.28,2.12-0.164-.25,1.009-.65a27.224,27.224,0,0,0-1.757-3.53q-1.749-3.045-3.589-5.88l-0.563-.87-2.4-1.29-0.971.62-0.163-.25,2.632-1.7,11.187,5.95-0.787-1.21q-2.475-3.81-2.545-3.92a22.117,22.117,0,0,0-2.956-3.64l-1.013.66-0.163-.25,3-1.94Zm12.127,10-4.02,2.21-0.144-.27,1.17-.64-6.853-12.47-1.171.64-0.144-.26,4.019-2.2,0.145,0.26-1.17.64,6.854,12.47,1.169-.64Zm6.148-6.49a3.181,3.181,0,0,1,.081,2.66,3.7,3.7,0,0,1-1.964,2,6.03,6.03,0,0,1-2.917.67l0.52,1.1-0.288.14-1.578-3.34,0.289-.14,0.395,0.84a4.792,4.792,0,0,0,1.893.63,3.135,3.135,0,0,0,1.725-.25,1.743,1.743,0,0,0,.983-1.11,2.267,2.267,0,0,0-.193-1.64,3.085,3.085,0,0,0-1.413-1.43,10.94,10.94,0,0,0-3-.89,11.061,11.061,0,0,1-3.305-.98,4.126,4.126,0,0,1-1.673-1.83,3.983,3.983,0,0,1-.172-3.2,4.1,4.1,0,0,1,2.22-2.36,5.87,5.87,0,0,1,2.958-.65l-0.288-.61,0.288-.14,1.432,3.04-0.288.14-0.392-.83a4.461,4.461,0,0,0-2.046-.72,3.846,3.846,0,0,0-2.07.29,2.049,2.049,0,0,0-1.19,1.36,2.892,2.892,0,0,0,.277,2.01,3.446,3.446,0,0,0,1.455,1.61,11.392,11.392,0,0,0,3.175.94,15.276,15.276,0,0,1,3.325.89A3.772,3.772,0,0,1,276.713,3661.01Zm3.9-11.42-0.3.12-0.37-.96a4.359,4.359,0,0,0-2.43-.2l5.111,13.28,1.35-.52,0.108,0.28-4.49,1.73-0.108-.29,1.351-.51-5.111-13.28a4.2,4.2,0,0,0-1.885,1.85l0.372,0.96-0.3.12-0.95-2.47,0.3-.12,0.094,0.25,6.1-2.35-0.095-.24,0.3-.12Zm14.422,7.59a2.237,2.237,0,0,1-1.534,1.64,1.863,1.863,0,0,1-1.862-.27,1.219,1.219,0,0,1-.343-0.47c-0.072-.17-0.252-0.71-0.541-1.6a1.855,1.855,0,0,0-2.741-1.46l-0.9.26,1.341,4.56,1.28-.38,0.085,0.29-4.4,1.29-0.084-.29,1.279-.37-1.342-4.56-1.369.41-0.085-.29,1.369-.41-2.593-8.8-1.279.38-0.086-.29,4.021-1.18a5.381,5.381,0,0,1,4.09.36,4.681,4.681,0,0,1,2.547,2.96,4.491,4.491,0,0,1,.086,2.21,4.77,4.77,0,0,1-.947,2.04,5.081,5.081,0,0,1-1.631,1.32,3.142,3.142,0,0,1,2.318.52,4.378,4.378,0,0,1,1.33,2.35,3.222,3.222,0,0,0,.311.82,0.334,0.334,0,0,0,.4.06,1.608,1.608,0,0,0,1-1.21Zm-5.179-7.34a8.106,8.106,0,0,0-1.773-3.63,2.808,2.808,0,0,0-2.748-.28l-0.9.26,2.594,8.8,0.9-.26a4.395,4.395,0,0,0,2.074-1C290.482,3653.08,290.434,3651.78,289.86,3649.84Zm12.776-7.91-1.179.23q-0.552,2.235-1.907,9.6l1.009,5.09,1.658-.33,0.059,0.29-5.013.99-0.059-.29,1.476-.29-0.973-4.9-5.557-8.31-1.29.25-0.059-.29,4.847-.96,0.059,0.29-1.483.3,5.146,7.62a30.931,30.931,0,0,0,.526-4.58,23.523,23.523,0,0,0,0-4.16l-1.253.24-0.059-.29,4-.79Zm18.582,5.82a8.857,8.857,0,0,1-1.37,5.52,4.819,4.819,0,0,1-8.045.32,8.437,8.437,0,0,1-1.9-5.17,10.566,10.566,0,0,1,.371-3.26,8.452,8.452,0,0,1,1.258-2.76,4.866,4.866,0,0,1,3.915-2.05,4.623,4.623,0,0,1,3.956,2.03A9.159,9.159,0,0,1,321.218,3647.75Zm-2.323-.63q-0.178-3.945-.849-5.1a2.782,2.782,0,0,0-2.753-1.36,3.216,3.216,0,0,0-1.9.66,2.85,2.85,0,0,0-1.047,1.59,14.29,14.29,0,0,0-.2,2.4q-0.061,1.83.016,3.48c0.117,2.62.394,4.32,0.83,5.12a2.872,2.872,0,0,0,2.9,1.39,2.7,2.7,0,0,0,2.77-1.98A23.741,23.741,0,0,0,318.9,3647.12Zm11.994-4.42-0.32-.02,0.03-.62a6.694,6.694,0,0,0-3.935-1.18l-0.541-.02-0.44,9.24,0.373,0.02a11.14,11.14,0,0,0,2.932-.28l0.039-.82,0.319,0.01-0.127,2.65-0.318-.02,0.037-.77a9.463,9.463,0,0,0-2.895-.47l-0.374-.02-0.222,4.67,1.915,0.09-0.015.3-5.161-.25,0.014-.3,1.333,0.07,0.22-4.67-1.424-.07,0.013-.3,1.427,0.07,0.439-9.24-1.332-.07,0.015-.3,7.769,0.37,0.02-.41,0.319,0.01Zm24.63,2.67-1.3-.28a86.745,86.745,0,0,0-6.035,9.73l-2.032,3.58-0.316-.07-0.8-8.69-4.355,7.6-0.247-.06-1.508-15.34-1.2-.26,0.064-.29,4.538,0.96-0.062.3-1.281-.27,1.111,11.88,2.9-5.1-0.562-6.05-1.065-.23,0.063-.29,6.543,1.39-0.064.3-1.212-.26a24.362,24.362,0,0,0-1.984,2.99l0.81,8.45,0.375-.69a75.179,75.179,0,0,0,4.732-9.91l-1.214-.26,0.064-.3,4.1,0.88Zm-7.7-1.64-1.341-.29,0.193,2.89A15.55,15.55,0,0,0,347.818,3643.73Zm11.011,18.8-0.3-.1,0.142-.43-7.51-2.48,0.095-.29,1.267,0.42,1.472-4.43-1.356-.45,0.095-.29,1.355,0.45,2.914-8.78-1.266-.42,0.1-.29,7.508,2.49,0.13-.39,0.3,0.1-0.734,2.21-0.3-.1,0.19-.57a6.988,6.988,0,0,0-3.466-2.22l-0.64-.21-2.913,8.78,0.337,0.11a8.049,8.049,0,0,0,2.636.48l0.23-.69,0.3,0.1-0.833,2.51-0.3-.1,0.224-.68a6.838,6.838,0,0,0-2.352-1.33l-0.337-.11-1.471,4.43,0.5,0.17a7.318,7.318,0,0,0,4.239.35l0.207-.62,0.3,0.1Zm7.337,3.18-0.3-.13,0.2-.48-6.614-2.79,0.117-.27,1.229,0.51,5.533-13.11-1.229-.51,0.118-.28,4.432,1.87-0.118.27-1.436-.6-5.534,13.11,0.363,0.15a7.753,7.753,0,0,0,3.614.52l0.291-.69,0.3,0.13Zm14.006-7.93-0.284-.15,0.284-.55a6.563,6.563,0,0,0-3.084-2.71l-0.483-.25-4.248,8.22,0.332,0.17a10.681,10.681,0,0,0,2.78.97l0.378-.73,0.286,0.14-1.216,2.36-0.283-.15,0.352-.68a9.147,9.147,0,0,0-2.434-1.64l-0.333-.17-2.145,4.15,1.7,0.88-0.137.27-4.592-2.37,0.138-.27,1.186,0.62,2.144-4.16-1.268-.65,0.139-.27,1.268,0.66,4.248-8.23-1.186-.61,0.138-.26,6.914,3.56,0.188-.37,0.283,0.15ZM384,3675.39l-3.693-2.34,0.162-.26,1.08,0.69,1.273-4.73-3.66-2.33a13.014,13.014,0,0,0-1.8,1.58,12.264,12.264,0,0,0-1.523,1.85l1.125,0.71-0.162.26-3.057-1.95,0.16-.25,0.889,0.56a19.046,19.046,0,0,0,2.157-1.49l1.877-1.48a4.212,4.212,0,0,0-1.636-.51l0.878-.64a3.332,3.332,0,0,0,1.015.96l7.928-6.29,0.253,0.17-2.655,9.63,1.6,1.02-0.162.26-1.492-.95-1.306,4.71,0.9,0.57Zm-1.1-6.94,1.77-6.48-5.27,4.25Zm9.91,12.71a2.24,2.24,0,0,1-2.229-.3,1.886,1.886,0,0,1-.852-1.68,1.213,1.213,0,0,1,.183-0.55c0.1-.16.434-0.62,1-1.37a2.363,2.363,0,0,0,.644-1.64,2.416,2.416,0,0,0-1.032-1.44l-0.738-.58-2.946,3.73,1.046,0.82-0.187.24-3.6-2.84,0.187-.24,1.046,0.83,2.948-3.73-1.121-.88,0.187-.24,1.12,0.89,5.7-7.2-1.047-.83,0.187-.23,3.288,2.59a5.43,5.43,0,0,1,2.071,3.54,4.713,4.713,0,0,1-.946,3.79,4.517,4.517,0,0,1-1.765,1.35,4.7,4.7,0,0,1-2.211.4,5.18,5.18,0,0,1-2.018-.56,3.158,3.158,0,0,1,.914,2.19,4.449,4.449,0,0,1-1.153,2.44,3.241,3.241,0,0,0-.5.73,0.358,0.358,0,0,0,.184.36,1.627,1.627,0,0,0,1.565.11Zm3.007-8.47a8.008,8.008,0,0,0,1.938-3.54,2.782,2.782,0,0,0-1.351-2.4l-0.737-.59-5.7,7.21,0.737,0.58a4.417,4.417,0,0,0,2.017,1.11Q393.934,3675.075,395.821,3672.69Zm2.148,15.38-0.233-.21,0.309-.33-5.755-5.42,0.207-.22,0.97,0.91,3.21-3.4-1.04-.98,0.207-.21,1.038,0.97,6.355-6.73-0.97-.91,0.206-.22,5.755,5.42,0.284-.3,0.233,0.22-1.6,1.69-0.234-.22,0.414-.43a6.9,6.9,0,0,0-2.2-3.47l-0.492-.46-6.353,6.73,0.258,0.24a8.137,8.137,0,0,0,2.187,1.54l0.5-.53,0.233,0.22-1.818,1.93-0.232-.22,0.49-.52a6.792,6.792,0,0,0-1.57-2.2l-0.257-.24-3.209,3.4,0.381,0.36a7.435,7.435,0,0,0,3.692,2.11l0.452-.48,0.232,0.22Zm18.781,6.53a4.466,4.466,0,0,1-3.484,1.04,4.91,4.91,0,0,1-3.2-2l-0.65-.83-3.739,2.94,1.2,1.52-0.236.18-3.2-4.07,0.237-.19,0.825,1.05,3.738-2.93-0.883-1.13,0.237-.18,0.881,1.12,7.227-5.67-0.824-1.04,0.236-.19,2.473,3.14a5.143,5.143,0,0,1,1.227,3.83A5.02,5.02,0,0,1,416.75,3694.6Zm-1.047-1.97a7.33,7.33,0,0,0,2.481-2.66,2.769,2.769,0,0,0-.839-2.42l-0.465-.59-7.225,5.67,0.6,0.76a2.427,2.427,0,0,0,2.078,1.25A9.43,9.43,0,0,0,415.7,3692.63Zm11.9,9.8-0.773-1.2a46.385,46.385,0,0,0-6.5,3.47,36.893,36.893,0,0,1-3.921,2.2,3.479,3.479,0,0,1-2.516.07,4.054,4.054,0,0,1-2.022-1.71,4.327,4.327,0,0,1-.759-3.19,3.193,3.193,0,0,1,.708-1.5,8.51,8.51,0,0,1,1.877-1.49l8.316-5.34-0.72-1.12,0.252-.16,2.478,3.85-0.253.16-0.721-1.12-8.327,5.34a11.221,11.221,0,0,0-2.836,2.2,2.013,2.013,0,0,0,.247,2.23,3.841,3.841,0,0,0,1.442,1.34,3.184,3.184,0,0,0,1.837.35q1.086-.12,4.491-2.3a38.143,38.143,0,0,0,6.09-4.58l-0.72-1.12,0.253-.16,2.325,3.61Zm0.4,11.31c-1.95,1-3.845.65-5.684-1.07a5.874,5.874,0,0,1,.349,2.04,2.683,2.683,0,0,1-.393,1.27,2.25,2.25,0,0,1-.895.86,2.1,2.1,0,0,1-2.161-.17,5.065,5.065,0,0,1-1.746-2.08l-2.384-4.64,0.266-.14,0.61,1.18,4.162-2.13-0.652-1.27,0.268-.14,0.652,1.27,8.24-4.22-0.608-1.19,0.266-.14,1.769,3.44a5.407,5.407,0,0,1,.548,4.15,4.721,4.721,0,0,1-.977,1.7A5.442,5.442,0,0,1,428,3713.74Zm-7.405,1.33c1.124-.57,1.613-1.27,1.464-2.08a8.092,8.092,0,0,0-.776-1.88l-0.284-.55-4.163,2.14,0.86,1.67a1.945,1.945,0,0,0,1.142,1.13A2.728,2.728,0,0,0,420.592,3715.07Zm6.6-3.38c1.828-.94,2.885-1.73,3.169-2.38,0.224-.53.033-1.38-0.574-2.56l-0.283-.55-8.241,4.23,0.283,0.55a3.59,3.59,0,0,0,1.786,1.99C423.924,3713.13,425.21,3712.71,427.193,3711.69Zm-5.324,14.08-0.122-.3,0.485-.2-2.745-6.62,0.279-.12,0.509,1.23,13.16-5.44-0.51-1.23,0.278-.11,1.84,4.44-0.278.11-0.6-1.44-13.161,5.44,0.151,0.36a7.792,7.792,0,0,0,2.2,2.91l0.694-.28,0.123,0.29Zm2.222,4.96-1.477-4.34,0.285-.09,0.429,1.26,13.484-4.59-0.429-1.26,0.285-.09,1.476,4.33-0.284.1-0.43-1.26-13.485,4.58,0.43,1.26Zm14.119,6.25-0.082-.31,0.294-.08a2.176,2.176,0,0,0,1.157-1.28,3.56,3.56,0,0,0,.223-2.61,4.516,4.516,0,0,0-.786-1.59,2.452,2.452,0,0,0-1.113-.93q-1-.33-7.047,1.29c-1.755.47-2.883,0.79-3.382,0.95a2.619,2.619,0,0,0-1.023.54,2.923,2.923,0,0,0-.669,1.68,5.468,5.468,0,0,0,.115,2.2,5.265,5.265,0,0,0,2.132,2.87l-1.193.12a10.3,10.3,0,0,1-1.106-2.45,6.045,6.045,0,0,1,.448-4.71,7.685,7.685,0,0,1,4.96-3.59,8.535,8.535,0,0,1,6.78.72,5.2,5.2,0,0,1,2.47,3.27,8.174,8.174,0,0,1,.081,2.97l0.671-.17,0.071,0.25Zm-6.17,17.49a3.178,3.178,0,0,1-2.549-.76,3.751,3.751,0,0,1-1.276-2.5,6.1,6.1,0,0,1,.3-2.98l-1.214.15-0.037-.32,3.677-.43,0.037,0.32-0.921.1a4.762,4.762,0,0,0-1.2,1.6,3.163,3.163,0,0,0-.314,1.71,1.731,1.731,0,0,0,.746,1.28,2.219,2.219,0,0,0,1.62.34,3.1,3.1,0,0,0,1.809-.88,11.157,11.157,0,0,0,1.8-2.56,10.992,10.992,0,0,1,1.977-2.82,4.087,4.087,0,0,1,2.267-1,4,4,0,0,1,3.1.85,4.128,4.128,0,0,1,1.536,2.86,5.918,5.918,0,0,1-.329,3l0.671-.08,0.038,0.32-3.341.39-0.038-.32,0.913-.1a4.409,4.409,0,0,0,1.332-1.71,3.852,3.852,0,0,0,.386-2.06,2.056,2.056,0,0,0-.912-1.56,2.926,2.926,0,0,0-2-.37,3.461,3.461,0,0,0-1.99.86,11.7,11.7,0,0,0-1.907,2.71,15.442,15.442,0,0,1-1.895,2.87A3.727,3.727,0,0,1,432.04,3754.47Zm-2.779,12.54-0.105-4.37,0.3-.01,0.03,1.28,4.642-1.58-0.1-4.33a15.267,15.267,0,0,0-4.7-.85l0.033,1.34h-0.3l-0.086-3.62,0.3-.01,0.026,1.06a18.663,18.663,0,0,0,2.448.95l2.274,0.73a4.131,4.131,0,0,0-.492-1.64l1.025,0.37a3.288,3.288,0,0,0-.231,1.38l9.642,3.07,0.008,0.3-9.492,3.17,0.046,1.9-0.3.01-0.042-1.77-4.643,1.54,0.027,1.07Zm5.167-4.78,6.368-2.14-6.468-2Zm7.11,13.56,0.02-.32,0.619,0.04a6.6,6.6,0,0,0,1.252-3.91l0.035-.54-9.244-.6-0.024.37a10.968,10.968,0,0,0,.223,2.93l0.825,0.06-0.02.32-2.644-.18,0.02-.31,0.77,0.05a9.39,9.39,0,0,0,.527-2.89l0.023-.37-4.668-.3-0.126,1.91-0.3-.02,0.336-5.15,0.3,0.02-0.087,1.33,4.668,0.3,0.093-1.42,0.3,0.02-0.093,1.42,9.243,0.6,0.086-1.33,0.3,0.02-0.5,7.75,0.413,0.03-0.021.32Zm-14.523,7.26,0.045-.32,0.445,0.07,1.113-7.82,0.3,0.04-0.188,1.32,4.631,0.65,0.2-1.41,0.3,0.04-0.2,1.42,9.171,1.3,0.189-1.32,0.3,0.04-1.113,7.82,0.41,0.06-0.045.32-2.306-.33,0.044-.32,0.595,0.09a6.934,6.934,0,0,0,1.566-3.8l0.095-.67-9.172-1.3-0.05.35a8.3,8.3,0,0,0,0,2.68l0.726,0.1-0.045.32L431.4,3782l0.046-.31,0.706,0.1a6.834,6.834,0,0,0,.893-2.55l0.051-.35-4.632-.66-0.074.52a7.353,7.353,0,0,0,.4,4.23l0.652,0.09-0.044.32Zm10.994,10.01,0.069-.31,1.009,0.22a4.349,4.349,0,0,0,1.5-1.91l-13.91-3.06-0.311,1.41-0.293-.06,1.032-4.7,0.293,0.07-0.309,1.41L441,3789.19a4.226,4.226,0,0,0-.508-2.59l-1.009-.23,0.069-.31,2.587,0.57-0.069.31-0.257-.05-1.4,6.37,0.256,0.06-0.068.31Zm-1.7,12.89,0.359-1.15q-1.7-1.545-7.529-6.26L424.19,3797l-0.5,1.61-0.286-.09,1.524-4.87,0.286,0.08-0.447,1.44,4.771,1.49,9.967-.9,0.392-1.26,0.287,0.09-1.475,4.71-0.286-.09,0.45-1.44-9.167.87a31.625,31.625,0,0,0,3.776,2.65,24.224,24.224,0,0,0,3.669,1.99l0.381-1.22,0.287,0.09-1.217,3.89ZM424.626,3820q-2.946-1.455-2.517-5.2a5.831,5.831,0,0,1-1.429,1.49,2.644,2.644,0,0,1-1.256.44,2.258,2.258,0,0,1-1.231-.2,2.084,2.084,0,0,1-1.143-1.84,5.048,5.048,0,0,1,.636-2.64l2.318-4.68,0.269,0.14-0.591,1.19,4.192,2.07,0.635-1.27,0.268,0.13-0.632,1.28,8.3,4.1,0.591-1.19,0.27,0.13-1.717,3.47a5.408,5.408,0,0,1-3.013,2.9,4.532,4.532,0,0,1-1.944.22A5.244,5.244,0,0,1,424.626,3820Zm-5.473-5.15q1.7,0.84,2.545-.06a8.147,8.147,0,0,0,1.052-1.75l0.275-.55-4.194-2.07L418,3812.1a1.929,1.929,0,0,0-.233,1.59A2.794,2.794,0,0,0,419.153,3814.85Zm6.651,3.28c1.841,0.92,3.109,1.29,3.8,1.13q0.831-.2,1.715-1.98l0.275-.55-8.3-4.11-0.275.56a3.562,3.562,0,0,0-.545,2.62C422.7,3816.37,423.806,3817.15,425.8,3818.13Zm-3.706,15.21,0.752-1.22a46.947,46.947,0,0,0-5.942-4.35,37.1,37.1,0,0,1-3.68-2.59,3.477,3.477,0,0,1-1.14-2.24,4.058,4.058,0,0,1,.667-2.56,4.33,4.33,0,0,1,2.557-2.05,3.04,3.04,0,0,1,1.665-.01,8.626,8.626,0,0,1,2.156,1.04l8.405,5.2,0.7-1.13,0.255,0.15-2.413,3.9-0.256-.16,0.7-1.13-8.414-5.21a11.252,11.252,0,0,0-3.208-1.6,2,2,0,0,0-1.906,1.18,3.749,3.749,0,0,0-.588,1.88,3.147,3.147,0,0,0,.475,1.8q0.573,0.93,4.014,3.06a38.855,38.855,0,0,0,6.759,3.52l0.7-1.14,0.256,0.16-2.264,3.65Zm-17.639.75a2.235,2.235,0,0,1,.263-2.23,1.848,1.848,0,0,1,1.665-.88,1.132,1.132,0,0,1,.552.17c0.161,0.1.623,0.42,1.385,0.97a1.86,1.86,0,0,0,3.078-.44l0.569-.75-3.78-2.88-0.809,1.06-0.238-.18,2.781-3.64,0.238,0.18-0.809,1.06,3.78,2.88,0.866-1.13,0.239,0.18-0.866,1.13,7.305,5.57,0.809-1.06,0.24,0.18-2.541,3.33a5.457,5.457,0,0,1-3.512,2.13,4.741,4.741,0,0,1-3.8-.88,4.633,4.633,0,0,1-1.383-1.74,4.692,4.692,0,0,1-.44-2.2,5.111,5.111,0,0,1,.531-2.03,3.139,3.139,0,0,1-2.176.95,4.3,4.3,0,0,1-2.463-1.11,3.993,3.993,0,0,0-.741-0.48,0.35,0.35,0,0,0-.355.19,1.615,1.615,0,0,0-.085,1.57Zm8.524,2.85a8.05,8.05,0,0,0,3.578,1.88,2.811,2.811,0,0,0,2.386-1.39l0.57-.75-7.306-5.56-0.57.74a4.3,4.3,0,0,0-1.08,2.04C410.561,3834.7,411.369,3835.71,412.983,3836.94Zm-15.489,2.54,0.216-.24,0.333,0.3,5.341-5.82,0.22,0.2-0.9.98,3.453,3.16,0.963-1.06,0.222,0.21-0.963,1.05,6.834,6.24,0.9-.98,0.222,0.2-5.34,5.83,0.3,0.28-0.214.24-1.72-1.57,0.215-.24,0.444,0.41a7.039,7.039,0,0,0,3.44-2.26l0.454-.49-6.836-6.25-0.239.26a8.2,8.2,0,0,0-1.512,2.21l0.541,0.49-0.216.24-1.955-1.79,0.216-.23,0.527,0.48a6.889,6.889,0,0,0,2.178-1.6l0.239-.26-3.452-3.16-0.354.39a7.374,7.374,0,0,0-2.057,3.72l0.486,0.44-0.216.24Zm-8.96,8.78,3.259-2.92,0.2,0.22-0.954.86,4.22,2.5,3.229-2.9a12.849,12.849,0,0,0-1.041-2.15,12.064,12.064,0,0,0-1.372-1.97l-0.992.89-0.2-.22,2.7-2.42,0.2,0.22-0.783.71a18.832,18.832,0,0,0,.864,2.48l0.919,2.2a4.085,4.085,0,0,0,.929-1.44l0.384,1.02a3.123,3.123,0,0,0-1.2.72l3.929,9.31-0.225.2-8.581-5.14-1.415,1.27-0.2-.23,1.318-1.18-4.191-2.52-0.8.72Zm7,0.82,5.768,3.44-2.68-6.21Zm-7.3,17.32,1.152-.84a46.608,46.608,0,0,0-3.865-6.26,37.136,37.136,0,0,1-2.438-3.78,3.463,3.463,0,0,1-.216-2.5,4.018,4.018,0,0,1,1.58-2.12,4.351,4.351,0,0,1,3.145-.95,3.226,3.226,0,0,1,1.546.61,9.041,9.041,0,0,1,1.605,1.78l5.834,7.97,1.077-.78,0.177,0.24-3.7,2.7-0.177-.24,1.077-.79-5.841-7.98a11.453,11.453,0,0,0-2.368-2.69,2.019,2.019,0,0,0-2.212.38,3.755,3.755,0,0,0-1.251,1.52,3.141,3.141,0,0,0-.239,1.85c0.121,0.72.978,2.16,2.571,4.34a37.682,37.682,0,0,0,4.941,5.79l1.077-.78,0.177,0.24-3.473,2.54Zm-17.472,6.59,0.285-.14,0.137,0.27a2.188,2.188,0,0,0,1.491.87,3.593,3.593,0,0,0,2.612-.32,4.624,4.624,0,0,0,1.4-1.09,2.442,2.442,0,0,0,.676-1.28q0.122-1.05-2.7-6.62c-0.82-1.62-1.363-2.66-1.627-3.11a2.579,2.579,0,0,0-.738-0.9,2.934,2.934,0,0,0-1.776-.31,5.539,5.539,0,0,0-2.139.57A5.24,5.24,0,0,0,366,3863.6l-0.365-1.14a10.274,10.274,0,0,1,2.178-1.59,6.071,6.071,0,0,1,4.7-.52,7.65,7.65,0,0,1,4.537,4.11,8.506,8.506,0,0,1,.686,6.78,5.208,5.208,0,0,1-2.7,3.08,8.084,8.084,0,0,1-2.9.69l0.315,0.62-0.241.12Zm-15.453-5.61a2.228,2.228,0,0,1,1.388-1.77,1.871,1.871,0,0,1,1.88.12,1.175,1.175,0,0,1,.382.43c0.084,0.17.31,0.69,0.673,1.55a2.382,2.382,0,0,0,1.094,1.39,2.406,2.406,0,0,0,1.762-.16l0.876-.34-1.721-4.43-1.243.49-0.11-.28,4.275-1.66,0.108,0.28-1.244.48,1.721,4.43,1.331-.52,0.11,0.28-1.333.52,3.327,8.55,1.244-.48,0.11,0.28-3.907,1.51a5.411,5.411,0,0,1-4.108-.01,4.694,4.694,0,0,1-2.786-2.73,4.586,4.586,0,0,1-.273-2.21,4.66,4.66,0,0,1,.775-2.1,5.192,5.192,0,0,1,1.51-1.46,3.152,3.152,0,0,1-2.352-.32,4.41,4.41,0,0,1-1.522-2.23,3.179,3.179,0,0,0-.38-0.79,0.348,0.348,0,0,0-.4-0.03,1.6,1.6,0,0,0-.888,1.29Zm5.778,6.87a8.089,8.089,0,0,0,2.074,3.47,2.794,2.794,0,0,0,2.762.05l0.876-.33-3.327-8.56-0.875.34a4.336,4.336,0,0,0-1.983,1.17C360.187,3871.08,360.345,3872.36,361.079,3874.25Zm-10.662-6.54,4.384-1.34,0.087,0.29-1.276.39,4.175,13.6,1.275-.39,0.088,0.29-4.383,1.34-0.089-.29,1.277-.39-4.175-13.6-1.275.39Zm-13.694,3.14,4.484-.96,0.063,0.3-1.305.27,2.929,13.73,1.468-11.94,6.04,7.6-0.637-2.98a43.2,43.2,0,0,0-2.228-8.02l-1.287.28-0.062-.3,3.8-.81,0.064,0.3-1.307.28a57.13,57.13,0,0,0,1.339,8.25l0.769,3.61,1.542,1.9,1.138-.24,0.062,0.3-3.127.66-6.179-7.8-1.132,9.36-3.344.71-0.064-.29,1.307-.28-2.97-13.92-1.3.28Zm-5.093.44,4.55-.56,0.037,0.3-1.324.16,1.724,14.12,1.325-.16,0.036,0.3-4.55.56-0.038-.3,1.326-.16-1.726-14.12-1.323.16Zm-10.464,15.17,0.788-.04a14.986,14.986,0,0,0,.3-2.9c0.025-.51.038-1.63,0.037-3.34s-0.01-2.79-.031-3.23l-0.274-5.77,7.405,11.93-0.039-.64c-0.207-4.35-.348-6.89-0.419-7.6a15.906,15.906,0,0,0-.52-3l-1.312.06-0.015-.3,3.9-.18,0.014,0.3-1.2.06a27.432,27.432,0,0,0-.264,3.93q-0.021,3.51.141,6.89l0.049,1.03,1.418,2.32,1.154-.05,0.015,0.3-3.135.15-6.665-10.77,0.068,1.44c0.145,3.03.219,4.58,0.224,4.67a22.393,22.393,0,0,0,.722,4.63l1.208-.06,0.014,0.3-3.567.17Zm-12.312-15.12,4.373,0.23-0.017.3-1.278-.07,1.219,4.75,4.334,0.23a13.039,13.039,0,0,0,.788-2.26,12.039,12.039,0,0,0,.416-2.36l-1.332-.07,0.016-.3,3.622,0.19-0.017.3-1.05-.05a18.165,18.165,0,0,0-1.142,2.36l-0.907,2.21a4.264,4.264,0,0,0,1.674-.36l-0.447.99a3.374,3.374,0,0,0-1.357-.34l-3.809,9.37-0.3-.02-2.435-9.69-1.9-.11,0.016-.3,1.767,0.1-1.181-4.74-1.069-.06Zm4.376,5.51,1.647,6.51,2.5-6.29Zm-11.983-7.25,0.317,0.05-0.076.52,7.1,1.03-0.042.3-1.321-.19-2.061,14.07,1.319,0.2-0.042.29-4.76-.69,0.044-.3,1.542,0.23,2.061-14.08-0.388-.06a7.922,7.922,0,0,0-3.63.4l-0.109.75-0.317-.05Zm-11.444-2.24,4.421,1.21-0.078.29-1.287-.35-3.763,13.72,1.287,0.35-0.079.29-4.422-1.21,0.079-.29,1.287,0.36,3.761-13.72-1.285-.36Zm-15.563,10.02,0.742,0.27a15.016,15.016,0,0,0,1.378-2.57c0.22-.47.657-1.49,1.31-3.08s1.054-2.58,1.2-3l1.944-5.43,2.3,13.84,0.207-.6q2.2-6.165,2.511-7.19a16.1,16.1,0,0,0,.663-2.97l-1.238-.44,0.1-.29,3.682,1.32-0.1.28-1.132-.41a27.791,27.791,0,0,0-1.745,3.55q-1.357,3.225-2.494,6.41l-0.348.97,0.425,2.7,1.087,0.38-0.1.29-2.955-1.06-2.058-12.49-0.487,1.36c-1.019,2.85-1.544,4.32-1.574,4.4a22.413,22.413,0,0,0-1.094,4.55l1.138,0.41-0.1.28-3.363-1.2Zm-11.69-5.46,1.086,0.51a46.606,46.606,0,0,0,3.771-3.73q1.334-1.41,4.01-4.38l2.791-3.2,0.254,0.12-2.1,15.33,1.12,0.53-0.128.27-4.5-2.13,0.129-.27,1.491,0.7,1.661-11.72-0.591.68a61.963,61.963,0,0,0-6.45,8.49l1.156,0.55-0.129.27-3.7-1.75Zm-0.335-17.65,0.276,0.16-0.23.39,6.81,4.01-0.153.26-1.148-.67-2.379,4.02,1.23,0.73-0.154.25-1.229-.72-4.713,7.96,1.149,0.68-0.153.26-6.811-4.02-0.21.36-0.275-.17,1.185-2,0.276,0.16-0.306.52a6.94,6.94,0,0,0,2.915,2.9l0.58,0.34,4.712-7.97-0.305-.18a8.447,8.447,0,0,0-2.474-1.02l-0.372.63-0.276-.16,1.347-2.28,0.275,0.16-0.363.62a6.919,6.919,0,0,0,2.015,1.8l0.306,0.18,2.38-4.03-0.45-.26a7.372,7.372,0,0,0-4.069-1.25l-0.334.57-0.275-.17Zm-8.883-1.8a3.154,3.154,0,0,1,2.272-1.38,3.731,3.731,0,0,1,2.715.71,6.116,6.116,0,0,1,2.022,2.21l0.7-1,0.26,0.18-2.131,3.02-0.261-.18,0.534-.76a4.684,4.684,0,0,0-.384-1.95,3.233,3.233,0,0,0-1.068-1.38,1.752,1.752,0,0,0-1.457-.3,2.284,2.284,0,0,0-1.333.98,3.081,3.081,0,0,0-.548,1.93,11.264,11.264,0,0,0,.711,3.05,11,11,0,0,1,.785,3.35,4.1,4.1,0,0,1-.764,2.36,3.991,3.991,0,0,1-2.706,1.73,4.118,4.118,0,0,1-3.153-.76,5.928,5.928,0,0,1-2.022-2.25l-0.39.56-0.261-.19,1.937-2.74,0.262,0.18-0.529.75a4.346,4.346,0,0,0,.387,2.13,3.87,3.87,0,0,0,1.272,1.66,2.06,2.06,0,0,0,1.771.36,2.9,2.9,0,0,0,1.618-1.24,3.437,3.437,0,0,0,.681-2.06,11.469,11.469,0,0,0-.748-3.22,15.137,15.137,0,0,1-.874-3.32A3.774,3.774,0,0,1,253.332,3852.47Zm-11.956,2.19,0.248,0.2-0.658.8a4.394,4.394,0,0,0,1.033,2.2l9.033-11-1.118-.91,0.19-.23,3.72,3.04-0.19.24-1.12-.92-9.032,11a4.241,4.241,0,0,0,2.542.72l0.654-.8,0.248,0.2-1.68,2.05-0.247-.2,0.166-.21-5.056-4.14-0.167.21-0.246-.21Zm4.122-13.13,3.369,3.1-0.2.22-0.98-.9-9.66,10.45,0.981,0.91-0.2.22-3.37-3.11,0.2-.22,0.981,0.91,9.658-10.46-0.98-.9Zm-11.545-4.7,0.911,0.98,3.5-3.27-0.668-.72,0.219-.2,0.669,0.71q0.356,0.39,1.782,1.74c0.315,0.3.577,0.56,0.782,0.78a5.263,5.263,0,0,1,1.407,4.55,8.18,8.18,0,0,1-2.728,4.85,8.563,8.563,0,0,1-5.367,2.57,5.925,5.925,0,0,1-4.809-2.02,8.216,8.216,0,0,1-1.7-2.77l-0.63.59-0.182-.2,2.543-2.44,0.218,0.23-0.329.31a2.416,2.416,0,0,0-.426,1.96,4.065,4.065,0,0,0,1.121,2.54,4.231,4.231,0,0,0,1.445,1.01,2.554,2.554,0,0,0,1.486.22q1.512-.27,5.023-3.56c2.433-2.28,3.723-3.78,3.873-4.52q0.3-1.485-1.509-3.42a7.721,7.721,0,0,0-.916-0.82l-3.5,3.27,1.375,1.47-0.22.21-3.595-3.84Zm-3.661-13.24,2.627,3.5-0.241.18-0.768-1.02-2.86,3.98,2.6,3.46a12.577,12.577,0,0,0,2.24-.85,11.677,11.677,0,0,0,2.076-1.19l-0.8-1.06,0.24-.18,2.179,2.89-0.242.18-0.631-.84a18.17,18.17,0,0,0-2.548.65l-2.278.72a4.121,4.121,0,0,0,1.353,1.05l-1.048.29a3.191,3.191,0,0,0-.613-1.25l-9.635,3.09-0.181-.24,5.884-8.09-1.142-1.52,0.24-.18,1.063,1.41,2.883-3.94-0.642-.86Zm-1.427,6.89-3.94,5.44,6.43-2.13Zm-12.528-5.95,0.169,0.27-0.876.55a4.418,4.418,0,0,0,.274,2.42l12.073-7.55L227.21,3819l0.255-.16,2.552,4.07-0.255.16L229,3821.84l-12.074,7.55a4.256,4.256,0,0,0,2.179,1.5l0.875-.55,0.17,0.27-2.246,1.4-0.169-.27,0.223-.14-3.47-5.53-0.223.14-0.169-.27Zm8.192-10.97,2.2,4.02-0.264.14-0.64-1.17-12.492,6.84,0.639,1.16-0.263.15-2.2-4.02,0.265-.14,0.64,1.17,12.493-6.84-0.641-1.17Zm-11.714-7.63a8.835,8.835,0,0,1,5.644-.77,4.806,4.806,0,0,1,3.271,7.35,8.473,8.473,0,0,1-4.109,3.67,10.558,10.558,0,0,1-3.173.85,8.572,8.572,0,0,1-3.031-.14,4.864,4.864,0,0,1-3.354-2.88,4.608,4.608,0,0,1,.425-4.42A9.09,9.09,0,0,1,212.815,3805.93Zm0.272,2.38q-3.6,1.62-4.43,2.67a2.8,2.8,0,0,0-.251,3.06,3.284,3.284,0,0,0,1.313,1.52,2.844,2.844,0,0,0,1.875.38,13.546,13.546,0,0,0,2.307-.7c1.146-.41,2.224-0.84,3.23-1.3q3.586-1.605,4.454-2.66a2.842,2.842,0,0,0,.225-3.2,2.7,2.7,0,0,0-2.869-1.84A23.494,23.494,0,0,0,213.087,3808.31Zm-10.673-10.9,0.249,0.74a14.565,14.565,0,0,0,2.871-.5q0.757-.165,3.234-0.87c1.651-.46,2.687-0.77,3.1-0.9l5.486-1.83-9.49,10.35,0.6-.21q6.22-2.07,7.215-2.46a15.825,15.825,0,0,0,2.749-1.32l-0.415-1.24,0.284-.1,1.239,3.7-0.286.1-0.381-1.14a29,29,0,0,0-3.864.81c-2.261.63-4.46,1.29-6.6,2.01l-0.98.32-1.857,2,0.366,1.09-0.284.1-1-2.98,8.57-9.32-1.372.46c-2.875.95-4.354,1.45-4.438,1.47a21.814,21.814,0,0,0-4.261,1.96l0.382,1.14-0.284.09-1.132-3.38Zm2.973-20.85a8.337,8.337,0,0,1,3.941.29,7.007,7.007,0,0,1,3.131,1.99,6.6,6.6,0,0,1,1.489,3.42l0.711,4.37-0.3.05-0.213-1.31-14.059,2.28,0.213,1.31-0.3.05-0.756-4.65a6.013,6.013,0,0,1,.647-4.1A7.384,7.384,0,0,1,205.387,3776.56Zm0.575,2.24q-5.3.87-6.21,2.55a5,5,0,0,0-.19,3.05l0.217,1.34,14.06-2.28-0.188-1.15c-0.3-1.82-.959-2.97-1.993-3.48Q210.191,3778.125,205.962,3778.8Zm6.776-12.19,0.021,0.32-0.45.03,0.54,7.88-0.3.02-0.091-1.33-4.666.32,0.095,1.42-0.3.02-0.1-1.42-9.242.63,0.091,1.33-0.3.02-0.539-7.89-0.411.03-0.022-.32,2.324-.15,0.022,0.31-0.6.05a6.9,6.9,0,0,0-.74,4.04l0.044,0.67,9.244-.63-0.025-.35a8.188,8.188,0,0,0-.556-2.62l-0.731.05-0.021-.32,2.643-.18,0.022,0.32-0.713.05a6.788,6.788,0,0,0-.344,2.67l0.024,0.36,4.667-.32-0.035-.52a7.327,7.327,0,0,0-1.275-4.06l-0.656.05-0.022-.32Zm-10.019-10.13a4.5,4.5,0,0,1,3.358,1.39,4.932,4.932,0,0,1,1.214,3.57l-0.02,1.05,4.753,0.09,0.034-1.93h0.3l-0.093,5.18h-0.3l0.023-1.34-4.752-.08-0.026,1.42h-0.3l0.026-1.43-9.189-.16-0.023,1.33-0.3-.01,0.071-3.99a5.121,5.121,0,0,1,1.468-3.74A4.993,4.993,0,0,1,202.719,3756.48Zm-0.434,2.19a7.389,7.389,0,0,0-3.609.5,2.754,2.754,0,0,0-.879,2.4l-0.014.75,9.189,0.17,0.016-.98a2.41,2.41,0,0,0-.822-2.27A9.166,9.166,0,0,0,202.285,3758.67Zm11.326-12.89-0.471,4.35-0.3-.03,0.138-1.27-4.81.96-0.466,4.3a12.245,12.245,0,0,0,2.217.91,11.534,11.534,0,0,0,2.332.55l0.144-1.33,0.3,0.04-0.39,3.6-0.3-.04,0.114-1.04a19.453,19.453,0,0,0-2.3-1.27l-2.158-1.02a4.1,4.1,0,0,0,.272,1.69l-0.968-.51a3.217,3.217,0,0,0,.409-1.33l-9.153-4.31,0.032-.3,9.827-1.9,0.2-1.89,0.3,0.04-0.19,1.75,4.806-.91,0.114-1.07Zm-5.75,4.07-6.595,1.28,6.149,2.84Zm6.984-14.41a2.222,2.222,0,0,1,.722,2.12,1.866,1.866,0,0,1-1.126,1.51,1.164,1.164,0,0,1-.575.08c-0.187-.02-0.743-0.11-1.667-0.28a1.85,1.85,0,0,0-2.593,1.71l-0.194.92,4.651,0.98,0.277-1.3,0.293,0.06-0.949,4.48-0.294-.06,0.275-1.3-4.65-.99-0.3,1.4-0.293-.06,0.3-1.4-8.989-1.9-0.276,1.3-0.295-.06,0.868-4.09a5.4,5.4,0,0,1,2.259-3.43,4.69,4.69,0,0,1,3.816-.83,4.475,4.475,0,0,1,2,.98,4.6,4.6,0,0,1,1.342,1.8,5.083,5.083,0,0,1,.388,2.05,3.192,3.192,0,0,1,1.557-1.79,4.466,4.466,0,0,1,2.7-.05,3.309,3.309,0,0,0,.877.12,0.348,0.348,0,0,0,.239-0.32,1.6,1.6,0,0,0-.595-1.45Zm-8.926,1.06a8.066,8.066,0,0,0-4.038-.16,2.823,2.823,0,0,0-1.558,2.28l-0.194.92,8.989,1.9,0.194-.92a4.3,4.3,0,0,0,.1-2.3C209.071,3737.5,207.905,3736.92,205.919,3736.5Zm0.069-11.13-0.091.31-0.99-.3a4.394,4.394,0,0,0-1.64,1.8l13.642,4.09,0.417-1.39,0.287,0.09-1.382,4.6-0.289-.09,0.417-1.38-13.644-4.09a4.229,4.229,0,0,0,.313,2.62l0.989,0.3-0.091.31-2.539-.76,0.093-.31,0.252,0.08,1.878-6.26-0.251-.07,0.09-.31Zm17.161-9.54-1.752,4.24-0.278-.12,0.509-1.23-12.987-5.37,9.021,7.98-9.691.66,2.82,1.17a42.514,42.514,0,0,0,7.878,2.7l0.5-1.21,0.278,0.11-1.488,3.59-0.277-.11,0.51-1.23a58.947,58.947,0,0,0-7.568-3.58l-3.411-1.4-2.448.18-0.446,1.08-0.278-.12,1.223-2.95,9.94-.66-7.082-6.24,1.307-3.15,0.278,0.11-0.51,1.23,13.161,5.44,0.51-1.23Zm4.721-7.47-0.153.28-0.4-.22-3.778,6.94-0.264-.14,0.637-1.17-4.111-2.23-0.681,1.25-0.265-.14,0.683-1.26-8.14-4.42-0.637,1.18-0.265-.15,3.779-6.94-0.364-.2,0.153-.28,2.046,1.11-0.152.28-0.528-.28a6.946,6.946,0,0,0-2.795,3.01l-0.322.59,8.139,4.42,0.169-.31a8.205,8.205,0,0,0,.937-2.51l-0.644-.35,0.153-.28,2.328,1.27-0.153.28-0.628-.34a6.752,6.752,0,0,0-1.728,2.07l-0.17.31,4.111,2.24,0.25-.46a7.343,7.343,0,0,0,1.1-4.11l-0.577-.31,0.152-.28Zm-6.339-17.57-0.439.65a15.02,15.02,0,0,0,2.154,1.96c0.4,0.33,1.29,1,2.668,2.02s2.25,1.66,2.614,1.9l4.805,3.22-14.006-1.17,0.535,0.35q5.445,3.645,6.366,4.19a15.307,15.307,0,0,0,2.721,1.37l0.732-1.09,0.25,0.17-2.175,3.24-0.25-.16,0.669-1a27.112,27.112,0,0,0-3.009-2.56q-2.812-2.1-5.619-3.99l-0.859-.57-2.715-.25-0.644.96-0.25-.17,1.746-2.6,12.631,1.07-1.2-.81q-3.777-2.52-3.886-2.6a22.041,22.041,0,0,0-4.151-2.17l-0.673,1-0.249-.17,1.987-2.96Zm7.078-5.47-0.2.25-0.806-.65a4.455,4.455,0,0,0-2.2,1.06l11.114,8.9,0.905-1.13,0.235,0.19-3.009,3.75-0.234-.19,0.9-1.13-11.114-8.9a4.243,4.243,0,0,0-.694,2.55l0.8,0.65-0.2.25-2.066-1.66,0.2-.25,0.207,0.17,4.089-5.1-0.205-.16,0.2-.25ZM394.03,3837.54a104.183,104.183,0,0,1-73.907,30.5h-0.007l-0.738-.01a105.037,105.037,0,0,1,.709-210.07h0.739A105.063,105.063,0,0,1,394.03,3837.54ZM237.7,3720.14h67.048a16.547,16.547,0,0,0,1.156,2.74H238.867c0.012,0.03.027,0.05,0.042,0.08a29.167,29.167,0,0,0,51.356,4.2h18.429a16.94,16.94,0,0,0,2.919,2.28l1.714,46.62v0.02s-11.614-3.06-16.545-5.59c-3.992-2.06-5.363-5.25-4.45-7.99,0.709-2.13,3.423-1.94,4.222-1.94a40.977,40.977,0,0,0,4.712-.01c3.137-.45,5.647-1.76,6.5-4.9,1.611-5.91-4.519-15.22-14.565-15.22-9.432,0-14.132,7.54-15.064,14.61-0.76,5.78,2.131,15.07,12.819,20.13,9.181,4.34,16.7,7.11,16.7,7.11s-18.83,7.57-17.041,19.37c1.139,7.53,8.672,11.87,20.54,13.58,0,0-12.438,5.82-11.411,13.58,0.862,6.52,10.5,8.69,15.324,9.36,0.173,6.29.291,11.57,0.312,12.4,0.14,5.82,2.28,8.11,5.134,8.11s4.993-2.29,5.132-8.11c0.022-.83.138-6.11,0.314-12.4,4.821-.67,14.459-2.84,15.321-9.36,1.027-7.76-11.41-13.58-11.41-13.58,11.867-1.71,19.4-6.05,20.541-13.58,1.787-11.8-17.042-19.37-17.042-19.37s7.519-2.77,16.7-7.11c10.688-5.06,13.579-14.35,12.818-20.13-0.929-7.07-5.628-14.61-15.063-14.61-10.044,0-16.176,9.31-14.563,15.22,0.856,3.14,3.365,4.45,6.5,4.9a40.977,40.977,0,0,0,4.712.01c0.8,0,3.513-.19,4.224,1.94,0.913,2.74-.458,5.93-4.452,7.99-4.931,2.53-16.545,5.59-16.545,5.59v-0.02h0l1.715-46.62a17.01,17.01,0,0,0,2.918-2.28h18.43a29.167,29.167,0,0,0,51.356-4.2c0.012-.03.027-0.05,0.041-0.08H335.136a16.387,16.387,0,0,0,1.158-2.74h67.049a34.94,34.94,0,0,0,1.1-3.5H337c0.047-.51.08-1.02,0.08-1.53a16.558,16.558,0,1,0-33.115,0c0,0.51.035,1.02,0.082,1.53H236.592A33.932,33.932,0,0,0,237.7,3720.14Zm105.158-9.74a22.825,22.825,0,0,0-44.67,0H235.61a25.828,25.828,0,0,0,.391,3.5h65.153a19.4,19.4,0,0,1,38.731,0h65.153a25.751,25.751,0,0,0,.392-3.5H342.855Zm-22.335-8.37a13.08,13.08,0,1,1-13.082,13.08A13.076,13.076,0,0,1,320.52,3702.03Zm1.369,23.2a10.205,10.205,0,0,0,8.726-8.59h-8.726v8.59Zm0-11.33h8.774a10.212,10.212,0,0,0-8.774-8.91v8.91Zm-2.738,11.33v-8.59h-8.729A10.209,10.209,0,0,0,319.151,3725.23Zm0-11.33v-8.91a10.214,10.214,0,0,0-8.777,8.91h8.777Zm-4.875,95.85c-4.88-.38-14.71-1.49-15.325-7.99-0.46-4.86,6.973-9.57,14.765-11.83C313.909,3796.76,314.089,3803.2,314.276,3809.75Zm0.686,23.97c-3.474-.26-9.927-0.89-9.393-5.82,0.373-3.43,5.53-5.06,9.055-5.78C314.747,3826.54,314.862,3830.12,314.962,3833.72Zm20.506-5.82c0.534,4.93-5.916,5.56-9.392,5.82,0.1-3.6.215-7.18,0.339-11.6C329.938,3822.84,335.1,3824.47,335.468,3827.9Zm-8.147-37.97c7.793,2.26,15.225,6.97,14.765,11.83-0.612,6.5-10.445,7.61-15.325,7.99C326.947,3803.2,327.128,3796.76,327.321,3789.93Zm-33.215-43.94h2.7a0.466,0.466,0,0,1,.3.1l1.575,1.27a0.488,0.488,0,0,1,.178.37v1.04a0.477,0.477,0,0,1-.478.48h-1.058a0.81,0.81,0,0,1-.2-0.03l-3.375-2.42A0.487,0.487,0,0,1,294.106,3745.99Zm49.849,3.24a0.52,0.52,0,0,1-.294.1h-1.105a0.507,0.507,0,0,1-.5-0.5v-1.1a0.512,0.512,0,0,1,.188-0.39l1.646-1.32a0.517,0.517,0,0,1,.314-0.11h2.832a0.5,0.5,0,0,1,.291.91Z" transform="translate(-190 -3633)"/>
</svg>
