<svg xmlns="http://www.w3.org/2000/svg" width="249.562" height="250" viewBox="0 0 249.562 250">
  <defs>
    <style>
      .cls-1 {
        fill: #fff;
        fill-rule: evenodd;
      }
    </style>
  </defs>
  <path id="symbol02_w.svg" class="cls-1" d="M115.552,80.223h8.165v8.054A9.565,9.565,0,0,1,115.552,80.223Zm10.727,8.054a9.56,9.56,0,0,0,8.163-8.054h-8.163v8.054Zm19.612-13.9a21.346,21.346,0,0,0-41.787,0H45.566a24.042,24.042,0,0,0,.367,3.28h60.949a18.148,18.148,0,0,1,36.231,0h60.95a24.02,24.02,0,0,0,.366-3.28H145.891Zm-5.48,5.848h63.1a32.41,32.41,0,0,1-1.034,3.281H139.754a15.232,15.232,0,0,1-1.083,2.569h62.711c-0.013.024-.027,0.05-0.039,0.075A27.268,27.268,0,0,1,153.3,90.087H136.06a16.015,16.015,0,0,1-2.73,2.136l-1.6,43.682h0v0.019s10.865-2.864,15.477-5.24c3.738-1.924,5.019-4.92,4.165-7.486-0.664-1.994-3.2-1.818-3.951-1.818a38.426,38.426,0,0,1-4.408-.009c-2.935-.42-5.283-1.649-6.083-4.59-1.509-5.543,4.227-14.261,13.623-14.261,8.826,0,13.222,7.064,14.092,13.692,0.711,5.417-1.994,14.117-11.992,18.857-8.588,4.072-15.623,6.666-15.623,6.666s17.615,7.089,15.943,18.146c-1.067,7.059-8.114,11.124-19.216,12.728,0,0,11.635,5.456,10.674,12.726-0.806,6.112-9.822,8.142-14.332,8.765-0.165,5.9-.273,10.843-0.295,11.627-0.129,5.452-2.132,7.595-4.8,7.595s-4.671-2.143-4.8-7.595c-0.019-.784-0.129-5.731-0.292-11.627-4.512-.623-13.529-2.653-14.335-8.765-0.961-7.27,10.675-12.726,10.675-12.726-11.1-1.6-18.149-5.669-19.214-12.728-1.674-11.057,15.94-18.146,15.94-18.146s-7.034-2.594-15.623-6.666c-10-4.74-12.7-13.44-11.991-18.857,0.871-6.628,5.267-13.692,14.092-13.692,9.4,0,15.132,8.718,13.625,14.261-0.8,2.941-3.151,4.17-6.086,4.59a38.408,38.408,0,0,1-4.407.009c-0.748,0-3.287-.176-3.95,1.818-0.855,2.566.428,5.562,4.163,7.486,4.613,2.376,15.477,5.24,15.477,5.24V135.9l-1.6-43.684a15.851,15.851,0,0,1-2.731-2.134H96.7a27.268,27.268,0,0,1-48.043-3.939c-0.014-.025-0.027-0.05-0.039-0.075h62.709a15.475,15.475,0,0,1-1.081-2.569H47.518a32.035,32.035,0,0,1-1.034-3.281h63.1c-0.044-.473-0.077-0.948-0.077-1.431a15.49,15.49,0,1,1,30.979,0C140.486,79.275,140.455,79.751,140.411,80.223ZM99.862,108.036a0.446,0.446,0,0,0,.166.5l3.007,2.158a0.454,0.454,0,0,0,.262.084h0.989a0.447,0.447,0,0,0,.447-0.449v-0.973a0.456,0.456,0,0,0-.167-0.349l-1.473-1.187a0.449,0.449,0,0,0-.281-0.1h-2.524A0.45,0.45,0,0,0,99.862,108.036Zm50.266,0a0.45,0.45,0,0,0-.427-0.311h-2.523a0.445,0.445,0,0,0-.281.1l-1.467,1.18a0.457,0.457,0,0,0-.167.352v0.973a0.449,0.449,0,0,0,.448.449H146.7a0.454,0.454,0,0,0,.262-0.084l3-2.156A0.45,0.45,0,0,0,150.128,108.038Zm-30.971,59.433c-0.174-6.135-.343-12.167-0.523-18.569-7.29,2.113-14.243,6.528-13.813,11.084C105.4,166.079,114.592,167.116,119.157,167.471Zm0.642,22.461c-0.094-3.373-.2-6.729-0.316-10.866-3.3.671-8.122,2.2-8.471,5.413C110.512,189.1,116.549,189.691,119.8,189.932Zm10.714-10.866c-0.116,4.137-.224,7.493-0.318,10.866,3.252-.241,9.286-0.835,8.786-5.453C138.634,181.263,133.808,179.737,130.513,179.066ZM131.36,148.9c-0.18,6.4-.349,12.434-0.523,18.569,4.564-.355,13.763-1.392,14.336-7.485C145.6,155.43,138.65,151.015,131.36,148.9Zm5.874-70.109A12.237,12.237,0,1,0,125,91.053,12.247,12.247,0,0,0,137.234,78.793Zm-10.955-9.484v8.347h8.208A9.564,9.564,0,0,0,126.279,69.309Zm-10.772,8.347h8.21V69.31A9.564,9.564,0,0,0,115.507,77.656ZM60.2,43.52l-3.25,2.955-0.193-.214,0.946-.859-9.042-9.981,4.541,10.617-8.66-3.392,1.963,2.168a41.643,41.643,0,0,0,5.709,5.578l0.933-.848,0.193,0.213-2.758,2.507-0.192-.213,0.945-.86a54.93,54.93,0,0,0-5.085-6.2l-2.374-2.622-2.2-.84-0.825.751-0.193-.214L42.931,40l8.874,3.5L48.23,35.183l2.424-2.2,0.193,0.213-0.946.86,9.162,10.114,0.947-.859Zm3.914-2.756-3.5,2.656-0.173-.229,1.017-.773L53.226,31.536l-1.018.772-0.175-.228,3.5-2.657,0.173,0.23-1.018.773,8.239,10.882,1.016-.773Zm1.253-17.576-0.634.412a14.518,14.518,0,0,0,1.154,2.544q0.342,0.661,1.583,2.793T69.055,31.6l3.011,4.654L60.185,29.931l0.339,0.51q3.414,5.276,4.016,6.107a15.464,15.464,0,0,0,1.876,2.237l1.056-.686,0.158,0.242-3.14,2.038-0.157-.242,0.966-.627a26.5,26.5,0,0,0-1.681-3.392q-1.675-2.923-3.436-5.643l-0.539-.831L57.349,28.4,56.42,29l-0.156-.242,2.52-1.637,10.708,5.715-0.754-1.164q-2.368-3.658-2.436-3.763a21.432,21.432,0,0,0-2.83-3.488l-0.97.63-0.156-.241,2.867-1.862Zm11.607,9.6-3.847,2.116-0.138-.253,1.12-.616L67.55,22.066l-1.12.615-0.138-.253,3.847-2.115,0.138,0.253-1.12.615,6.561,11.973,1.119-.616Zm5.885-6.23a3.057,3.057,0,0,1,.078,2.552,3.568,3.568,0,0,1-1.88,1.923,5.814,5.814,0,0,1-2.792.641l0.5,1.06-0.276.131-1.511-3.212,0.277-.13,0.378,0.8a4.511,4.511,0,0,0,1.811.609A3.06,3.06,0,0,0,81.1,30.7a1.668,1.668,0,0,0,.942-1.072,2.186,2.186,0,0,0-.185-1.574A2.969,2.969,0,0,0,80.5,26.678a10.71,10.71,0,0,0-2.876-.853,10.57,10.57,0,0,1-3.164-.937,3.934,3.934,0,0,1-1.6-1.754,3.852,3.852,0,0,1-.165-3.08,3.956,3.956,0,0,1,2.125-2.267,5.682,5.682,0,0,1,2.831-.619l-0.276-.586,0.276-.132,1.371,2.918-0.276.131-0.375-.8a4.183,4.183,0,0,0-1.958-.689,3.672,3.672,0,0,0-1.982.275,1.967,1.967,0,0,0-1.139,1.306,2.8,2.8,0,0,0,.266,1.935,3.31,3.31,0,0,0,1.392,1.544,10.953,10.953,0,0,0,3.039.906,14.43,14.43,0,0,1,3.183.849A3.606,3.606,0,0,1,82.861,26.561ZM86.6,15.6l-0.286.111-0.355-.926a4.214,4.214,0,0,0-2.326-.185l4.891,12.748,1.293-.5,0.1,0.269-4.3,1.655-0.1-.27,1.293-.5L81.919,15.257a4.058,4.058,0,0,0-1.8,1.775l0.356,0.926-0.287.109L79.275,15.7l0.286-.11,0.091,0.235,5.842-2.25L85.4,13.336l0.286-.11Zm13.8,7.285a2.148,2.148,0,0,1-1.468,1.577,1.79,1.79,0,0,1-1.783-.263,1.177,1.177,0,0,1-.329-0.448q-0.1-.252-0.517-1.537a2.283,2.283,0,0,0-.931-1.417,2.283,2.283,0,0,0-1.693.012l-0.863.254L94.1,25.432l1.225-.36,0.081,0.276L91.2,26.589l-0.081-.276,1.224-.362-1.285-4.373-1.31.387-0.082-.277,1.311-.386-2.483-8.453-1.224.361-0.082-.277L91.036,11.8a5.168,5.168,0,0,1,3.915.345,4.507,4.507,0,0,1,2.438,2.841,4.364,4.364,0,0,1,.082,2.13,4.532,4.532,0,0,1-.907,1.954A4.9,4.9,0,0,1,95,20.333a3.045,3.045,0,0,1,2.219.5A4.244,4.244,0,0,1,98.5,23.088a3.225,3.225,0,0,0,.3.793,0.33,0.33,0,0,0,.382.056,1.545,1.545,0,0,0,.952-1.163Zm-4.957-7.048a7.727,7.727,0,0,0-1.7-3.48,2.683,2.683,0,0,0-2.63-.277l-0.863.255,2.483,8.453,0.863-.254a4.157,4.157,0,0,0,1.986-.962Q96.267,18.633,95.445,15.833Zm12.23-7.593-1.129.225q-0.528,2.144-1.825,9.216l0.965,4.879,1.588-.315,0.057,0.282-4.8.953-0.057-.282,1.413-.28-0.931-4.7-5.319-7.982L96.4,10.48,96.345,10.2l4.64-.922,0.057,0.283-1.42.281,4.926,7.324a30.079,30.079,0,0,0,.5-4.4,22.658,22.658,0,0,0,0-4l-1.2.238-0.057-.283,3.828-.762Zm17.786,5.584a8.51,8.51,0,0,1-1.311,5.3,4.6,4.6,0,0,1-7.7.309,8.124,8.124,0,0,1-1.816-4.962,10.24,10.24,0,0,1,.355-3.133,8.113,8.113,0,0,1,1.2-2.647,4.657,4.657,0,0,1,3.747-1.97,4.419,4.419,0,0,1,3.787,1.946A8.815,8.815,0,0,1,125.46,13.823Zm-2.224-.6q-0.171-3.783-.813-4.893a2.673,2.673,0,0,0-2.634-1.309,3.109,3.109,0,0,0-1.816.633,2.748,2.748,0,0,0-1,1.534,13.512,13.512,0,0,0-.194,2.3q-0.058,1.753.014,3.341a13.429,13.429,0,0,0,.8,4.912,2.74,2.74,0,0,0,2.779,1.339,2.586,2.586,0,0,0,2.651-1.907A22.756,22.756,0,0,0,123.236,13.219Zm11.481-4.242-0.306-.015,0.028-.594a6.321,6.321,0,0,0-3.766-1.135l-0.518-.025-0.421,8.872,0.357,0.018a10.513,10.513,0,0,0,2.806-.264l0.037-.792,0.306,0.015L133.118,17.6l-0.3-.014,0.035-.739a8.936,8.936,0,0,0-2.771-.456l-0.358-.017-0.212,4.481,1.832,0.087-0.013.288-4.94-.235L126.4,20.7l1.277,0.06,0.211-4.482-1.364-.064,0.013-.288,1.365,0.064,0.421-8.872-1.275-.061,0.014-.288L134.5,7.126l0.019-.4,0.305,0.015Zm23.575,2.565-1.249-.267a83.087,83.087,0,0,0-5.776,9.341l-1.945,3.434-0.3-.063-0.763-8.347-4.169,7.3-0.236-.053L142.409,8.15l-1.145-.244,0.061-.283,4.344,0.928-0.059.283-1.227-.262,1.064,11.413,2.775-4.9-0.538-5.806-1.02-.219,0.061-.281,6.262,1.338-0.061.281-1.16-.248a23.625,23.625,0,0,0-1.9,2.875l0.775,8.111L151,20.467a71.527,71.527,0,0,0,4.53-9.514l-1.162-.248,0.06-.282,3.923,0.838Zm-7.371-1.574-1.284-.275,0.185,2.767A14.929,14.929,0,0,0,150.921,9.968Zm10.539,18.05-0.29-.1,0.136-.411-7.188-2.386,0.091-.273,1.212,0.4,1.409-4.26-1.3-.431,0.091-.273,1.3,0.431,2.788-8.432-1.211-.4,0.09-.273L165.775,14l0.125-.376,0.29,0.1-0.7,2.121-0.291-.1,0.181-.547a6.642,6.642,0,0,0-3.317-2.126l-0.612-.2L158.661,21.3l0.323,0.107a7.89,7.89,0,0,0,2.523.458l0.22-.668,0.29,0.1-0.8,2.412-0.29-.1,0.214-.649a6.56,6.56,0,0,0-2.251-1.279l-0.322-.107-1.409,4.259,0.477,0.158a7.027,7.027,0,0,0,4.058.341l0.2-.6,0.289,0.1Zm7.023,3.049-0.283-.119,0.2-.465-6.331-2.673,0.112-.267,1.177,0.5,5.3-12.586-1.177-.5,0.113-.266,4.242,1.793-0.113.264-1.374-.58-5.3,12.585,0.347,0.146a7.525,7.525,0,0,0,3.459.5l0.279-.665,0.283,0.119Zm13.407-7.613-0.272-.142,0.272-.528a6.321,6.321,0,0,0-2.953-2.6l-0.462-.239-4.066,7.894L174.727,28a10.562,10.562,0,0,0,2.66.93l0.363-.7,0.273,0.14-1.164,2.258-0.271-.141,0.337-.656a8.9,8.9,0,0,0-2.329-1.569l-0.319-.165-2.053,3.987,1.629,0.843-0.131.257-4.4-2.273,0.133-.255,1.134,0.587,2.053-3.988-1.214-.628,0.133-.256L172.779,27l4.066-7.894-1.135-.587,0.132-.256,6.618,3.421,0.18-.353,0.271,0.141Zm3.663,16.915-3.536-2.255,0.155-.243,1.034,0.66,1.219-4.542-3.5-2.235a12.5,12.5,0,0,0-1.722,1.517,11.511,11.511,0,0,0-1.457,1.772l1.077,0.688-0.155.243-2.927-1.868,0.154-.243,0.85,0.542a17.6,17.6,0,0,0,2.065-1.437l1.8-1.417a3.908,3.908,0,0,0-1.567-.487l0.841-.617a3.145,3.145,0,0,0,.971.919l7.589-6.032,0.243,0.155-2.542,9.252,1.537,0.98-0.155.243-1.429-.912-1.25,4.522,0.865,0.551ZM184.5,33.7l1.7-6.216-5.045,4.078Zm9.486,12.2a2.139,2.139,0,0,1-2.134-.288A1.8,1.8,0,0,1,191.04,44a1.172,1.172,0,0,1,.176-0.527c0.1-.152.415-0.591,0.954-1.311a2.291,2.291,0,0,0,.616-1.58A2.294,2.294,0,0,0,191.8,39.2l-0.707-.559-2.82,3.577,1,0.794-0.178.226-3.443-2.725,0.178-.227,1,0.794,2.821-3.578-1.072-.849,0.179-.226,1.072,0.849,5.451-6.914-1-.793,0.18-.227,3.147,2.491a5.2,5.2,0,0,1,1.982,3.4,4.527,4.527,0,0,1-.906,3.634,4.373,4.373,0,0,1-1.689,1.3,4.512,4.512,0,0,1-2.116.387,4.9,4.9,0,0,1-1.932-.544,3.045,3.045,0,0,1,.875,2.1,4.239,4.239,0,0,1-1.1,2.345,3.243,3.243,0,0,0-.474.7,0.335,0.335,0,0,0,.176.345,1.541,1.541,0,0,0,1.5.107Zm2.878-8.125a7.708,7.708,0,0,0,1.855-3.4,2.694,2.694,0,0,0-1.293-2.311l-0.706-.559-5.453,6.914,0.706,0.559a4.13,4.13,0,0,0,1.93,1.068Q195.062,40.066,196.868,37.775Zm2.056,14.767-0.223-.21,0.3-.314-5.509-5.2,0.2-.211,0.929,0.878,3.072-3.264-1-.939,0.2-.21,0.994,0.939,6.083-6.463-0.929-.877,0.2-.21,5.509,5.2,0.272-.289,0.223,0.21-1.53,1.626L207.485,43l0.4-.419a6.651,6.651,0,0,0-2.109-3.331L205.3,38.8l-6.082,6.464,0.247,0.233a7.886,7.886,0,0,0,2.094,1.482l0.48-.511,0.224,0.21-1.74,1.848-0.223-.21,0.469-.5a6.56,6.56,0,0,0-1.5-2.111l-0.246-.233-3.072,3.264,0.365,0.345a7.034,7.034,0,0,0,3.534,2.026l0.432-.459,0.222,0.21ZM216.9,58.809a4.263,4.263,0,0,1-3.334,1,4.708,4.708,0,0,1-3.062-1.921l-0.622-.794L206.3,59.908l1.145,1.459-0.226.179-3.066-3.911,0.226-.179,0.789,1.007,3.579-2.816L207.9,54.569l0.228-.178,0.843,1.076,6.916-5.442L215.1,49.02l0.226-.178L217.7,51.86a4.924,4.924,0,0,1,1.174,3.67A4.806,4.806,0,0,1,216.9,58.809Zm-1-1.892a7.071,7.071,0,0,0,2.375-2.556,2.661,2.661,0,0,0-.8-2.322l-0.445-.566-6.916,5.442,0.577,0.736a2.32,2.32,0,0,0,1.99,1.2A9.009,9.009,0,0,0,215.9,56.917Zm11.386,9.4-0.74-1.152a44.754,44.754,0,0,0-6.216,3.338,35.674,35.674,0,0,1-3.753,2.114,3.328,3.328,0,0,1-2.409.061,3.881,3.881,0,0,1-1.936-1.636,4.185,4.185,0,0,1-.726-3.066,3.058,3.058,0,0,1,.678-1.443,8.463,8.463,0,0,1,1.8-1.432l7.961-5.122-0.69-1.076,0.241-.156,2.372,3.7-0.242.155-0.69-1.076-7.97,5.129a10.824,10.824,0,0,0-2.715,2.11,1.932,1.932,0,0,0,.237,2.138,3.616,3.616,0,0,0,1.38,1.286,3.022,3.022,0,0,0,1.758.336q1.041-.111,4.3-2.209a36.357,36.357,0,0,0,5.83-4.394l-0.689-1.075,0.242-.156,2.225,3.471Zm0.382,10.867q-2.8,1.441-5.441-1.029a5.653,5.653,0,0,1,.335,1.955,2.589,2.589,0,0,1-.377,1.217,2.158,2.158,0,0,1-.856.835,2,2,0,0,1-2.069-.171,4.826,4.826,0,0,1-1.671-2l-2.282-4.456,0.255-.133,0.584,1.139,3.984-2.049L219.5,71.28l0.256-.131,0.625,1.218,7.888-4.056-0.583-1.139,0.255-.132,1.693,3.3a5.2,5.2,0,0,1,.525,3.983,4.54,4.54,0,0,1-.936,1.626A5.212,5.212,0,0,1,227.666,77.188Zm-7.088,1.277q1.614-.831,1.4-2a7.716,7.716,0,0,0-.743-1.806l-0.272-.529-3.985,2.049,0.823,1.6a1.849,1.849,0,0,0,1.094,1.088A2.642,2.642,0,0,0,220.578,78.465Zm6.318-3.251q2.625-1.349,3.034-2.288a3.253,3.253,0,0,0-.549-2.452l-0.272-.529L221.221,74l0.271,0.528a3.433,3.433,0,0,0,1.71,1.916Q224.05,76.679,226.9,75.214Zm-5.1,13.517-0.117-.283,0.465-.192L219.52,81.9l0.267-.11,0.488,1.182,12.6-5.223-0.488-1.181,0.266-.11,1.762,4.262-0.267.11-0.571-1.382-12.6,5.223,0.144,0.349a7.535,7.535,0,0,0,2.108,2.794l0.665-.276,0.117,0.283Zm2.127,4.762-1.413-4.162,0.272-.093,0.411,1.21,12.907-4.4-0.412-1.212,0.273-.093,1.414,4.162L237.107,89,236.7,87.79l-12.907,4.4L224.2,93.4Zm13.515,6-0.079-.295,0.282-.076a2.1,2.1,0,0,0,1.107-1.228,3.455,3.455,0,0,0,.214-2.514,4.418,4.418,0,0,0-.753-1.527,2.355,2.355,0,0,0-1.065-.886q-0.963-.321-6.746,1.235-2.518.677-3.237,0.917a2.425,2.425,0,0,0-.978.516,2.8,2.8,0,0,0-.642,1.607,5.292,5.292,0,0,0,.111,2.117,5.041,5.041,0,0,0,2.041,2.753l-1.142.118a9.81,9.81,0,0,1-1.058-2.356,5.8,5.8,0,0,1,.428-4.515,7.339,7.339,0,0,1,4.747-3.449,8.132,8.132,0,0,1,6.49.687,5,5,0,0,1,2.365,3.14A7.933,7.933,0,0,1,239.6,98.6l0.642-.172,0.068,0.248Zm-5.906,16.8a3.049,3.049,0,0,1-2.44-.736,3.583,3.583,0,0,1-1.221-2.4,5.824,5.824,0,0,1,.282-2.855L227,110.44l-0.036-.3,3.519-.412,0.036,0.305-0.882.1a4.526,4.526,0,0,0-1.152,1.528,3.072,3.072,0,0,0-.3,1.643,1.664,1.664,0,0,0,.714,1.235,2.173,2.173,0,0,0,1.55.324,2.954,2.954,0,0,0,1.732-.846,10.755,10.755,0,0,0,1.721-2.461,10.631,10.631,0,0,1,1.893-2.708,3.928,3.928,0,0,1,2.17-.961,3.829,3.829,0,0,1,2.966.823,3.961,3.961,0,0,1,1.47,2.739,5.705,5.705,0,0,1-.315,2.885l0.642-.076,0.036,0.305-3.2.375-0.036-.305,0.873-.1a4.157,4.157,0,0,0,1.275-1.641,3.673,3.673,0,0,0,.37-1.969,1.966,1.966,0,0,0-.873-1.5,2.792,2.792,0,0,0-1.915-.363,3.315,3.315,0,0,0-1.905.832,11.044,11.044,0,0,0-1.824,2.6,14.51,14.51,0,0,1-1.814,2.752A3.6,3.6,0,0,1,231.536,116.293Zm-2.66,12.036-0.1-4.2,0.287-.005,0.029,1.227,4.443-1.518-0.1-4.159a12.318,12.318,0,0,0-2.218-.587,11.427,11.427,0,0,0-2.282-.224l0.032,1.279-0.289.006-0.083-3.475,0.287-.008,0.024,1.01a17.816,17.816,0,0,0,2.343.916l2.177,0.705a3.951,3.951,0,0,0-.471-1.575l0.981,0.354a3.153,3.153,0,0,0-.22,1.321l9.228,2.949,0.007,0.289-9.084,3.045,0.043,1.823-0.287.007-0.041-1.7-4.444,1.479,0.026,1.028Zm4.946-4.59,6.095-2.056-6.192-1.922Zm6.805,13.017,0.019-.306,0.593,0.038a6.354,6.354,0,0,0,1.2-3.752l0.034-.519-8.848-.576L233.6,132a10.548,10.548,0,0,0,.213,2.814l0.79,0.051-0.02.307-2.53-.165,0.019-.306,0.737,0.048a9.035,9.035,0,0,0,.5-2.767l0.022-.358-4.468-.291-0.12,1.833-0.287-.018,0.321-4.944,0.288,0.018-0.083,1.276,4.468,0.291,0.089-1.367,0.288,0.02-0.089,1.366,8.848,0.576,0.082-1.276,0.288,0.018-0.483,7.444,0.394,0.026-0.019.305Zm-13.9,6.973,0.043-.3,0.427,0.062,1.065-7.512,0.286,0.041-0.181,1.267,4.433,0.631,0.193-1.356,0.286,0.04-0.193,1.357,8.778,1.249,0.181-1.267,0.284,0.04-1.065,7.511,0.392,0.056-0.043.3-2.208-.313,0.043-.3,0.569,0.081a6.661,6.661,0,0,0,1.5-3.647l0.091-.64-8.778-1.25-0.049.337a7.949,7.949,0,0,0,0,2.568l0.7,0.1-0.043.3-2.511-.357,0.043-.3,0.676,0.1a6.56,6.56,0,0,0,.855-2.447l0.049-.336-4.434-.632-0.07.5a7.071,7.071,0,0,0,.386,4.062l0.624,0.088-0.043.3Zm10.523,9.615,0.066-.3,0.966,0.212a4.218,4.218,0,0,0,1.436-1.842L226.4,148.482l-0.3,1.354-0.281-.062,0.988-4.5,0.281,0.062-0.3,1.355,13.315,2.934a4.071,4.071,0,0,0-.486-2.486l-0.966-.214,0.066-.3,2.477,0.546-0.067.3-0.245-.054-1.345,6.124,0.245,0.054-0.064.3Zm-1.625,12.37,0.343-1.1q-1.626-1.491-7.206-6.012l-4.739-1.483-0.483,1.548-0.275-.086,1.46-4.678L225,153.987l-0.428,1.376,4.566,1.431,9.54-.866,0.375-1.2,0.275,0.086-1.411,4.523-0.274-.085,0.431-1.383-8.775.831a29.915,29.915,0,0,0,3.614,2.546,22.723,22.723,0,0,0,3.512,1.91l0.365-1.17,0.275,0.086L235.9,165.8ZM224.44,179.207q-2.82-1.4-2.41-4.994a5.659,5.659,0,0,1-1.368,1.433,2.59,2.59,0,0,1-1.2.419,2.158,2.158,0,0,1-1.178-.191,2.006,2.006,0,0,1-1.094-1.769,4.836,4.836,0,0,1,.609-2.533l2.219-4.489,0.257,0.128-0.566,1.146,4.013,1.99,0.607-1.228,0.257,0.128-0.6,1.228,7.946,3.94,0.566-1.147,0.259,0.128-1.644,3.327a5.186,5.186,0,0,1-2.884,2.791,4.505,4.505,0,0,1-1.861.214A5.2,5.2,0,0,1,224.44,179.207Zm-5.239-4.95q1.626,0.808,2.436-.058a7.72,7.72,0,0,0,1.007-1.672l0.263-.533L218.893,170l-0.8,1.615a1.862,1.862,0,0,0-.223,1.528A2.642,2.642,0,0,0,219.2,174.257Zm6.366,3.156q2.643,1.313,3.64,1.082a3.241,3.241,0,0,0,1.642-1.9l0.263-.532-7.947-3.94-0.263.533a3.437,3.437,0,0,0-.522,2.516Q222.7,175.991,225.567,177.413Zm-3.547,14.6,0.719-1.165a44.81,44.81,0,0,0-5.687-4.182,35.739,35.739,0,0,1-3.522-2.481,3.336,3.336,0,0,1-1.092-2.151,3.888,3.888,0,0,1,.638-2.454,4.171,4.171,0,0,1,2.449-1.977,3.033,3.033,0,0,1,1.593-.01,8.4,8.4,0,0,1,2.064,1.006l8.045,4.988L227.9,182.5l0.245,0.152-2.31,3.738-0.245-.153,0.672-1.087-8.053-5a10.806,10.806,0,0,0-3.071-1.544,1.924,1.924,0,0,0-1.825,1.136,3.615,3.615,0,0,0-.562,1.8,3.026,3.026,0,0,0,.454,1.734q0.549,0.893,3.843,2.934a36.518,36.518,0,0,0,6.469,3.378l0.672-1.089,0.244,0.152-2.167,3.509Zm-16.884.721a2.156,2.156,0,0,1,.252-2.142,1.79,1.79,0,0,1,1.593-.844,1.153,1.153,0,0,1,.529.166q0.231,0.142,1.325.933a1.775,1.775,0,0,0,2.947-.422l0.544-.717-3.617-2.765-0.775,1.017-0.228-.174,2.662-3.5,0.228,0.175-0.774,1.016,3.618,2.766,0.828-1.089,0.23,0.175-0.83,1.088,6.993,5.344,0.774-1.017,0.23,0.174-2.433,3.2a5.18,5.18,0,0,1-3.361,2.042,4.5,4.5,0,0,1-3.643-.845,4.362,4.362,0,0,1-1.323-1.669,4.5,4.5,0,0,1-.421-2.112,4.911,4.911,0,0,1,.508-1.945,3.043,3.043,0,0,1-2.083.913,4.231,4.231,0,0,1-2.358-1.066,3.27,3.27,0,0,0-.708-0.463,0.331,0.331,0,0,0-.34.182,1.545,1.545,0,0,0-.081,1.5Zm8.159,2.744a7.718,7.718,0,0,0,3.425,1.8A2.693,2.693,0,0,0,219,195.938l0.545-.717-6.993-5.343-0.546.716a4.144,4.144,0,0,0-1.033,1.952Q210.977,193.7,213.3,195.473ZM198.47,197.9l0.207-.225L199,197.97l5.112-5.6,0.21,0.194-0.86.944,3.3,3.028,0.922-1.01,0.213,0.194-0.922,1.011,6.541,5.994,0.864-.943,0.212,0.195-5.111,5.6,0.291,0.267-0.206.226-1.645-1.508,0.206-.226,0.425,0.39a6.641,6.641,0,0,0,3.291-2.165l0.436-.475-6.543-6-0.229.252a7.874,7.874,0,0,0-1.448,2.119l0.518,0.475-0.207.225-1.87-1.715,0.206-.225,0.5,0.462a6.574,6.574,0,0,0,2.085-1.535l0.228-.252-3.3-3.028-0.339.371a7.047,7.047,0,0,0-1.969,3.571l0.465,0.425-0.207.226Zm-8.577,8.436,3.119-2.8,0.192,0.214-0.912.82,4.039,2.4,3.091-2.779a12.34,12.34,0,0,0-1-2.07,11.48,11.48,0,0,0-1.313-1.883l-0.949.855-0.193-.214,2.583-2.323,0.193,0.214-0.75.673a17.53,17.53,0,0,0,.828,2.381l0.879,2.114a3.955,3.955,0,0,0,.89-1.38l0.366,0.976a3.159,3.159,0,0,0-1.145.692l3.761,8.942-0.215.193-8.214-4.938-1.355,1.218-0.192-.215,1.261-1.132-4.011-2.423-0.763.686Zm6.7,0.782,5.521,3.3-2.566-5.963ZM189.6,223.758l1.1-.808a44.763,44.763,0,0,0-3.7-6.017,35.263,35.263,0,0,1-2.333-3.625,3.342,3.342,0,0,1-.207-2.4,3.886,3.886,0,0,1,1.513-2.034,4.156,4.156,0,0,1,3.01-.911,3.03,3.03,0,0,1,1.479.59A8.424,8.424,0,0,1,192,210.258l5.584,7.651,1.031-.755,0.17,0.233-3.543,2.594-0.169-.232,1.03-.755-5.591-7.661a10.821,10.821,0,0,0-2.266-2.586,1.925,1.925,0,0,0-2.117.366,3.63,3.63,0,0,0-1.2,1.458,3.015,3.015,0,0,0-.228,1.778q0.174,1.032,2.46,4.165a36.532,36.532,0,0,0,4.729,5.564l1.032-.755,0.169,0.233-3.325,2.435Zm-16.725,6.327,0.273-.138,0.132,0.26a2.094,2.094,0,0,0,1.427.835,3.445,3.445,0,0,0,2.5-.3,4.456,4.456,0,0,0,1.337-1.051,2.347,2.347,0,0,0,.647-1.228q0.115-1.005-2.587-6.361-1.178-2.331-1.558-2.986a2.441,2.441,0,0,0-.706-0.855,2.775,2.775,0,0,0-1.7-.3,5.27,5.27,0,0,0-2.047.542,5.035,5.035,0,0,0-2.271,2.564l-0.349-1.094a9.757,9.757,0,0,1,2.085-1.522,5.782,5.782,0,0,1,4.5-.5A7.356,7.356,0,0,1,178.9,221.9a8.176,8.176,0,0,1,.657,6.5,5.006,5.006,0,0,1-2.584,2.963,7.877,7.877,0,0,1-2.778.66l0.3,0.594-0.231.117Zm-14.791-5.4A2.151,2.151,0,0,1,159.412,223a1.792,1.792,0,0,1,1.8.111,1.164,1.164,0,0,1,.366.419q0.121,0.242.644,1.488a1.774,1.774,0,0,0,2.733,1.179l0.84-.326-1.648-4.249-1.19.463-0.1-.27,4.092-1.591,0.1,0.269-1.19.463,1.647,4.25,1.274-.5,0.105,0.268-1.275.5,3.184,8.214,1.19-.464,0.106,0.269-3.74,1.454a5.173,5.173,0,0,1-3.932-.012,4.519,4.519,0,0,1-2.667-2.625,4.383,4.383,0,0,1-.261-2.116,4.522,4.522,0,0,1,.741-2.023,4.935,4.935,0,0,1,1.447-1.393,3.034,3.034,0,0,1-2.252-.309,4.245,4.245,0,0,1-1.457-2.142,3.235,3.235,0,0,0-.364-0.764,0.329,0.329,0,0,0-.385-0.024,1.541,1.541,0,0,0-.851,1.24Zm5.531,6.6a7.748,7.748,0,0,0,1.985,3.326,2.685,2.685,0,0,0,2.643.053l0.839-.325-3.184-8.215-0.838.326a4.142,4.142,0,0,0-1.9,1.126Q162.56,228.575,163.614,231.3Zm-10.205-6.28,4.2-1.288L157.688,224l-1.222.375,4,13.057,1.22-.375,0.085,0.276-4.2,1.289-0.085-.277,1.222-.374-4-13.058-1.222.375ZM140.3,228.024l4.292-.916,0.06,0.282-1.249.267,2.8,13.181,1.406-11.464,5.781,7.3-0.609-2.863a41.736,41.736,0,0,0-2.133-7.7l-1.232.263-0.059-.282,3.64-.778,0.061,0.283-1.25.266a55.1,55.1,0,0,0,1.282,7.925l0.736,3.462,1.475,1.833,1.09-.234,0.06,0.283-2.994.638-5.915-7.493-1.082,8.987-3.2.683-0.062-.281,1.251-.267-2.843-13.359-1.247.268Zm-4.874.425,4.355-.534,0.035,0.287-1.267.155,1.65,13.557,1.268-.155,0.034,0.287-4.355.532-0.036-.286,1.269-.156-1.652-13.557-1.266.156ZM125.41,243.011l0.755-.035a14.445,14.445,0,0,0,.282-2.781q0.036-.743.035-3.212t-0.029-3.1l-0.263-5.539,7.088,11.454-0.037-.612q-0.3-6.278-.4-7.3a15.353,15.353,0,0,0-.5-2.879l-1.256.06-0.015-.287,3.737-.179,0.014,0.288-1.15.055a26.823,26.823,0,0,0-.253,3.779q-0.018,3.372.136,6.61l0.047,0.989,1.357,2.234,1.1-.054,0.014,0.289-3,.143L126.7,232.6l0.065,1.385q0.207,4.358.214,4.483a21.426,21.426,0,0,0,.692,4.44l1.156-.056,0.013,0.288-3.414.163ZM113.625,228.5l4.186,0.223-0.016.288-1.223-.065,1.167,4.554,4.147,0.221a12.391,12.391,0,0,0,.755-2.17,11.578,11.578,0,0,0,.4-2.261l-1.274-.068,0.014-.288,3.467,0.185-0.015.288-1-.054a17.8,17.8,0,0,0-1.094,2.269l-0.868,2.119a3.918,3.918,0,0,0,1.6-.347l-0.428.951a3.143,3.143,0,0,0-1.3-.321l-3.647,8.989L118.207,243l-2.331-9.308-1.818-.1,0.016-.288,1.691,0.089-1.131-4.553-1.023-.054Zm4.189,5.293,1.576,6.247L121.779,234Zm-11.47-6.963,0.3,0.045-0.072.5,6.8,1-0.041.285-1.264-.186-1.973,13.514,1.263,0.186-0.041.285-4.556-.668,0.042-.285,1.477,0.216,1.973-13.513-0.372-.055a7.5,7.5,0,0,0-3.474.384l-0.105.713L106,229.2ZM95.39,224.679l4.232,1.162-0.075.278-1.232-.338-3.6,13.173,1.232,0.338-0.076.277-4.232-1.161,0.076-.278,1.231,0.339,3.6-13.174-1.23-.337Zm-14.9,9.618,0.711,0.254a14.3,14.3,0,0,0,1.318-2.463q0.317-.673,1.254-2.956t1.15-2.878l1.861-5.222,2.2,13.295,0.2-.578q2.11-5.921,2.4-6.905a15.47,15.47,0,0,0,.635-2.852l-1.185-.425,0.1-.271,3.524,1.26-0.1.272-1.084-.388a26.6,26.6,0,0,0-1.67,3.4q-1.3,3.11-2.387,6.163l-0.333.932,0.407,2.583,1.041,0.373-0.1.271-2.829-1.011-1.97-11.993-0.466,1.306q-1.464,4.107-1.507,4.226a21.414,21.414,0,0,0-1.047,4.37l1.089,0.389-0.1.272-3.22-1.152ZM69.3,229.053l1.04,0.493a45.026,45.026,0,0,0,3.61-3.588q1.276-1.35,3.838-4.2l2.671-3.079,0.244,0.116L78.7,233.515l1.073,0.509-0.123.261-4.307-2.047,0.124-.259,1.427,0.677L78.48,221.4l-0.566.652a58.69,58.69,0,0,0-6.173,8.154l1.106,0.526-0.124.26-3.543-1.682Zm-0.32-16.948,0.264,0.155-0.22.372,6.518,3.858-0.146.249-1.1-.65-2.277,3.862,1.177,0.7-0.147.248-1.177-.7-4.511,7.648,1.1,0.651-0.146.248L61.8,224.887l-0.2.342-0.264-.156,1.135-1.923,0.264,0.155-0.292.5a6.642,6.642,0,0,0,2.79,2.782l0.556,0.329,4.51-7.648L70,219.092a7.885,7.885,0,0,0-2.367-.983l-0.357.6-0.264-.155,1.29-2.188,0.264,0.156-0.348.589a6.581,6.581,0,0,0,1.929,1.729l0.292,0.173,2.278-3.864-0.431-.254a7.019,7.019,0,0,0-3.894-1.2l-0.321.544-0.262-.156Zm-8.5-1.724a3.052,3.052,0,0,1,2.175-1.331,3.578,3.578,0,0,1,2.6.689,5.815,5.815,0,0,1,1.935,2.115l0.674-.958,0.25,0.177-2.04,2.9-0.249-.177,0.511-.726a4.521,4.521,0,0,0-.368-1.879,3.058,3.058,0,0,0-1.021-1.32,1.66,1.66,0,0,0-1.395-.291,2.184,2.184,0,0,0-1.276.941,2.959,2.959,0,0,0-.524,1.855,10.8,10.8,0,0,0,.68,2.927,10.62,10.62,0,0,1,.752,3.218,3.942,3.942,0,0,1-.731,2.262,3.843,3.843,0,0,1-2.591,1.666,3.945,3.945,0,0,1-3.018-.731,5.685,5.685,0,0,1-1.935-2.159l-0.373.531-0.25-.177,1.854-2.637,0.252,0.177-0.507.72a4.2,4.2,0,0,0,.37,2.047,3.663,3.663,0,0,0,1.218,1.588,1.967,1.967,0,0,0,1.7.349,2.8,2.8,0,0,0,1.548-1.188A3.314,3.314,0,0,0,61.366,219a11,11,0,0,0-.716-3.095,14.64,14.64,0,0,1-.836-3.191A3.611,3.611,0,0,1,60.482,210.381Zm-11.444,2.1,0.237,0.194-0.629.767a4.24,4.24,0,0,0,.988,2.116L58.28,205l-1.07-.88,0.182-.223,3.561,2.926-0.182.224-1.072-.881-8.645,10.56a4.053,4.053,0,0,0,2.433.694l0.626-.767,0.238,0.195-1.608,1.964-0.236-.194,0.159-.2-4.84-3.976-0.16.2-0.236-.194Zm3.946-12.607,3.224,2.98-0.195.212-0.939-.866-9.245,10.037,0.939,0.868-0.195.211-3.226-2.982,0.2-.211,0.939,0.868,9.244-10.038-0.938-.867Zm-11.051-4.506L42.8,196.3l3.35-3.139-0.639-.684,0.21-.2,0.64,0.684q0.341,0.366,1.706,1.669c0.3,0.289.553,0.538,0.749,0.749a5.066,5.066,0,0,1,1.347,4.366,7.835,7.835,0,0,1-2.611,4.658,8.161,8.161,0,0,1-5.137,2.468,5.651,5.651,0,0,1-4.6-1.94,7.888,7.888,0,0,1-1.622-2.659l-0.6.567-0.175-.187,2.435-2.351,0.209,0.223-0.315.3a2.341,2.341,0,0,0-.408,1.884,3.9,3.9,0,0,0,1.073,2.44,4.01,4.01,0,0,0,1.383.968,2.463,2.463,0,0,0,1.422.217q1.447-.271,4.808-3.423,3.493-3.274,3.707-4.339,0.288-1.431-1.445-3.286a7.464,7.464,0,0,0-.876-0.781l-3.35,3.139,1.316,1.408-0.211.2-3.441-3.684Zm-3.5-12.715,2.515,3.359-0.231.172-0.735-.981-2.738,3.82,2.493,3.328a12.437,12.437,0,0,0,2.145-.813,11.412,11.412,0,0,0,1.987-1.145L43.1,189.369l0.23-.173,2.085,2.782-0.231.172-0.6-.807a17.524,17.524,0,0,0-2.439.618l-2.181.691a3.948,3.948,0,0,0,1.3,1.01l-1,.281a3.155,3.155,0,0,0-.587-1.2l-9.223,2.967-0.173-.231,5.632-7.762-1.094-1.46,0.23-.173,1.018,1.357,2.759-3.79-0.615-.822Zm-1.366,6.614-3.771,5.22,6.154-2.037ZM25.07,183.558l0.162,0.258-0.838.527a4.253,4.253,0,0,0,.262,2.322l11.557-7.247-0.735-1.175,0.245-.154L38.165,182l-0.245.152-0.734-1.175L25.63,188.222a4.06,4.06,0,0,0,2.085,1.435l0.838-.525,0.163,0.259-2.15,1.348L26.4,190.48l0.213-.134L23.3,185.031l-0.213.134-0.162-.26Zm7.841-10.536,2.108,3.855-0.252.139-0.613-1.122L22.2,182.455l0.612,1.121-0.252.139-2.108-3.856,0.253-.138,0.612,1.121,11.958-6.56-0.614-1.122ZM21.7,165.692a8.466,8.466,0,0,1,5.4-.738,4.616,4.616,0,0,1,3.131,7.055,8.1,8.1,0,0,1-3.933,3.524,10.157,10.157,0,0,1-3.037.825,8.053,8.053,0,0,1-2.9-.144,4.656,4.656,0,0,1-3.211-2.761,4.438,4.438,0,0,1,.407-4.244A8.773,8.773,0,0,1,21.7,165.692Zm0.26,2.292q-3.448,1.555-4.24,2.565a2.683,2.683,0,0,0-.241,2.934,3.128,3.128,0,0,0,1.257,1.458,2.743,2.743,0,0,0,1.794.367,13.685,13.685,0,0,0,2.208-.67q1.646-.6,3.092-1.247a13.338,13.338,0,0,0,4.264-2.554,2.749,2.749,0,0,0,.215-3.081,2.581,2.581,0,0,0-2.747-1.764A22.661,22.661,0,0,0,21.96,167.984ZM11.744,157.513l0.239,0.718a14.484,14.484,0,0,0,2.748-.482q0.725-.166,3.1-0.836t2.97-.87l5.251-1.757-9.084,9.943,0.577-.2q5.954-1.989,6.906-2.368a15.248,15.248,0,0,0,2.632-1.26l-0.4-1.2,0.272-.092,1.186,3.555-0.274.091L27.5,161.663a26.439,26.439,0,0,0-3.7.783q-3.246.9-6.314,1.922l-0.938.314L14.771,166.6l0.351,1.051-0.272.092L13.9,164.885l8.2-8.956-1.313.44-4.248,1.421a21.26,21.26,0,0,0-4.078,1.873l0.366,1.1-0.272.092L11.471,157.6ZM14.59,137.5a7.931,7.931,0,0,1,3.772.281,6.651,6.651,0,0,1,3,1.9,6.358,6.358,0,0,1,1.425,3.291l0.681,4.2-0.285.047-0.2-1.264-13.457,2.19,0.2,1.262-0.284.046-0.724-4.464a5.783,5.783,0,0,1,.62-3.934A7.069,7.069,0,0,1,14.59,137.5Zm0.55,2.156q-5.077.827-5.944,2.445a4.829,4.829,0,0,0-.181,2.932l0.208,1.281,13.457-2.19-0.179-1.1q-0.424-2.614-1.908-3.341Q19.187,138.994,15.14,139.653Zm6.486-11.71,0.021,0.3-0.431.03,0.517,7.568-0.288.019-0.088-1.276-4.466.305,0.092,1.366-0.287.02L16.6,134.913l-8.847.6,0.088,1.276-0.288.02-0.516-7.569-0.394.029-0.021-.307,2.225-.151,0.02,0.3-0.574.04a6.662,6.662,0,0,0-.709,3.88l0.043,0.645,8.848-.6-0.023-.339a7.91,7.91,0,0,0-.532-2.512l-0.7.048L15.2,129.97l2.53-.173,0.02,0.307-0.682.046a6.581,6.581,0,0,0-.329,2.571l0.023,0.34,4.467-.306-0.034-.5a7.036,7.036,0,0,0-1.22-3.892l-0.628.043-0.02-.305Zm-9.589-9.723a4.27,4.27,0,0,1,3.214,1.337,4.723,4.723,0,0,1,1.162,3.427l-0.018,1.009,4.549,0.082,0.033-1.856,0.288,0.005L21.175,127.2l-0.288-.005,0.022-1.28-4.549-.082-0.024,1.37-0.288-.006,0.025-1.368-8.8-.16-0.022,1.28-0.288-.006L7.036,123.1a4.923,4.923,0,0,1,1.4-3.587A4.786,4.786,0,0,1,12.036,118.22Zm-0.416,2.1a7.078,7.078,0,0,0-3.454.479,2.668,2.668,0,0,0-.842,2.309l-0.013.721,8.8,0.159,0.016-.937a2.328,2.328,0,0,0-.787-2.186A9,9,0,0,0,11.62,120.32Zm10.842-12.37-0.451,4.173-0.286-.03,0.132-1.221-4.6.919-0.447,4.137a12.419,12.419,0,0,0,2.122.874,11.494,11.494,0,0,0,2.232.521l0.137-1.271,0.286,0.031L21.21,119.54l-0.287-.031,0.108-1a17.532,17.532,0,0,0-2.2-1.217l-2.065-.985a3.932,3.932,0,0,0,.26,1.623l-0.926-.482a3.129,3.129,0,0,0,.391-1.28l-8.761-4.138,0.03-.287,9.406-1.823,0.2-1.813,0.287,0.031-0.182,1.688,4.6-.883,0.109-1.021Zm-5.5,3.9-6.312,1.236,5.886,2.72Zm6.686-13.834a2.156,2.156,0,0,1,.69,2.044,1.8,1.8,0,0,1-1.078,1.447,1.18,1.18,0,0,1-.55.076c-0.179-.02-0.712-0.11-1.6-0.274a2.277,2.277,0,0,0-1.686.149,2.3,2.3,0,0,0-.8,1.5l-0.186.881,4.452,0.943,0.265-1.251,0.281,0.06-0.909,4.3-0.281-.059,0.263-1.252-4.452-.945-0.283,1.34-0.281-.058,0.282-1.341-8.6-1.824L8.913,105l-0.283-.06,0.83-3.931a5.2,5.2,0,0,1,2.162-3.29,4.5,4.5,0,0,1,3.653-.8,4.346,4.346,0,0,1,1.91.94,4.519,4.519,0,0,1,1.285,1.727,4.936,4.936,0,0,1,.371,1.975,3.054,3.054,0,0,1,1.49-1.719,4.235,4.235,0,0,1,2.587-.05,3.219,3.219,0,0,0,.839.114,0.333,0.333,0,0,0,.229-0.31,1.541,1.541,0,0,0-.569-1.392ZM15.1,99.039a7.708,7.708,0,0,0-3.865-.156,2.7,2.7,0,0,0-1.491,2.188l-0.186.881,8.6,1.826,0.186-.883a4.139,4.139,0,0,0,.1-2.207Q17.95,99.644,15.1,99.039ZM15.165,88.35l-0.088.293-0.947-.284a4.221,4.221,0,0,0-1.569,1.729l13.058,3.923,0.4-1.328,0.275,0.083-1.323,4.418L24.693,97.1l0.4-1.329-13.06-3.924a4.075,4.075,0,0,0,.3,2.516l0.946,0.284-0.087.294-2.43-.729,0.089-.294,0.241,0.073,1.8-6.007-0.24-.072,0.087-.294ZM31.591,79.2l-1.678,4.062-0.266-.11,0.487-1.183L17.7,76.813l8.634,7.654-9.276.64,2.7,1.119a41.485,41.485,0,0,0,7.541,2.6l0.482-1.166,0.266,0.11-1.424,3.446-0.265-.11,0.488-1.182A54.965,54.965,0,0,0,19.6,86.492L16.34,85.14,14,85.318,13.57,86.35,13.3,86.24l1.171-2.834,9.514-.638L17.21,76.784l1.252-3.03,0.266,0.11-0.488,1.182,12.6,5.221,0.488-1.182Zm4.518-7.181-0.146.269-0.379-.207-3.616,6.666L31.715,78.6l0.61-1.124L28.39,75.336l-0.652,1.2L27.485,76.4l0.653-1.2-7.791-4.242-0.609,1.124-0.253-.139L23.1,65.279l-0.348-.19L22.9,64.82l1.959,1.067-0.146.27-0.506-.276a6.66,6.66,0,0,0-2.675,2.894l-0.308.567,7.79,4.242,0.162-.3a7.871,7.871,0,0,0,.9-2.406l-0.616-.335,0.146-.269,2.228,1.213-0.146.269-0.6-.327a6.583,6.583,0,0,0-1.654,1.993l-0.163.3L33.2,75.865l0.24-.441a7.04,7.04,0,0,0,1.053-3.94l-0.553-.3,0.146-.268ZM30.042,55.146l-0.42.629a14.493,14.493,0,0,0,2.062,1.882q0.573,0.473,2.554,1.942t2.5,1.822l4.6,3.087L27.932,63.391l0.513,0.334q5.211,3.5,6.093,4.026a15.326,15.326,0,0,0,2.6,1.314l0.7-1.048,0.239,0.161L36,71.292l-0.239-.16,0.64-.958a26.628,26.628,0,0,0-2.88-2.455q-2.692-2.024-5.379-3.828l-0.822-.552-2.6-.238-0.616.922-0.24-.161,1.672-2.5,12.09,1.024-1.151-.772-3.72-2.5a21.476,21.476,0,0,0-3.973-2.089l-0.643.963L27.9,57.83l1.9-2.844ZM36.817,49.9l-0.19.239-0.772-.62a4.216,4.216,0,0,0-2.1,1.014L44.39,59.075l0.867-1.083,0.225,0.18-2.88,3.6-0.224-.181,0.865-1.083L32.6,51.967a4.062,4.062,0,0,0-.665,2.445l0.771,0.619-0.191.239-1.978-1.589,0.19-.239,0.2,0.158,3.914-4.893-0.2-.157,0.191-.239ZM124.98,3.119c0.283,0,.575,0,0.858,0,67.189,0.465,121.283,55.408,120.819,122.721-0.462,67.027-54.838,121.04-121.642,121.04-0.282,0-.575,0-0.857,0C56.968,246.414,2.874,191.47,3.338,124.16,3.8,57.13,58.175,3.119,124.98,3.119m0-3.119A124.882,124.882,0,0,0,.226,124.138,124.892,124.892,0,0,0,124.136,250c0.29,0,.59,0,0.879,0A124.882,124.882,0,0,0,249.77,125.864,124.891,124.891,0,0,0,125.859,0c-0.289,0-.589,0-0.879,0h0Zm0.038,225.826h-0.007l-0.707,0C68.811,225.439,23.976,179.9,24.359,124.3A100.727,100.727,0,0,1,124.983,24.175l0.709,0A100.866,100.866,0,0,1,195.9,196.555,99.9,99.9,0,0,1,125.018,225.826ZM124.983,27.293c-53.4,0-97.144,43.528-97.513,97.032-0.37,53.875,43.079,98.008,96.855,98.381l0.687,0c53.4,0,97.143-43.527,97.513-97.036A97.623,97.623,0,0,0,125.67,27.3Z" transform="translate(-0.219)"/>
</svg>
